<svg aria-hidden="true" style="position: absolute; width: 0; height: 0; overflow: hidden;" version="1.1" xmlns="http://www.w3.org/2000/svg" xmlns:xlink="http://www.w3.org/1999/xlink">
<defs>

<symbol id="icon-light-bulb-thin" viewBox="0 0 24 24" fill-rule="evenodd" clip-rule="evenodd">
    <path d="M13 24h-2c-.288 0-.563-.125-.753-.341l-.576-.659h4.658l-.576.659c-.19.216-.465.341-.753.341zm1.867-3c.287 0 .52.224.52.5s-.233.5-.52.5h-5.734c-.287 0-.52-.224-.52-.5s.233-.5.52-.5h5.734zm-2.871-17c2.983 0 6.004 1.97 6.004 5.734 0 1.937-.97 3.622-1.907 5.252-.907 1.574-1.843 3.201-1.844 5.014h1.001c0-3.286 3.75-6.103 3.75-10.266 0-4.34-3.502-6.734-7.004-6.734-3.498 0-6.996 2.391-6.996 6.734 0 4.163 3.75 6.98 3.75 10.266h.999c.001-1.813-.936-3.44-1.841-5.014-.938-1.63-1.908-3.315-1.908-5.252 0-3.764 3.017-5.734 5.996-5.734zm9.428 7.958c.251.114.362.411.248.662-.114.251-.41.363-.662.249l-.91-.414c-.252-.114-.363-.41-.249-.662.114-.251.411-.362.662-.248l.911.413zm-18.848 0c-.251.114-.362.411-.248.662.114.251.41.363.662.249l.91-.414c.252-.114.363-.41.249-.662-.114-.251-.411-.362-.662-.248l-.911.413zm18.924-2.958h-1c-.276 0-.5-.224-.5-.5s.224-.5.5-.5h1c.276 0 .5.224.5.5s-.224.5-.5.5zm-18-1c.276 0 .5.224.5.5s-.224.5-.5.5h-1c-.276 0-.5-.224-.5-.5s.224-.5.5-.5h1zm16.818-3.089c.227-.158.284-.469.126-.696-.157-.227-.469-.283-.696-.126l-.821.57c-.227.158-.283.469-.126.696.157.227.469.283.696.126l.821-.57zm-16.636 0c-.227-.158-.284-.469-.126-.696.157-.227.469-.283.696-.126l.821.57c.227.158.283.469.126.696-.157.227-.469.283-.696.126l-.821-.57zm13.333-3.033c.134-.241.048-.546-.193-.68-.241-.135-.546-.048-.68.192l-.488.873c-.135.241-.048.546.192.681.241.134.546.048.681-.193l.488-.873zm-10.03 0c-.134-.241-.048-.546.193-.68.241-.135.546-.048.68.192l.488.873c.135.241.048.546-.192.681-.241.134-.546.048-.681-.193l-.488-.873zm5.515-1.378c0-.276-.224-.5-.5-.5s-.5.224-.5.5v1c0 .276.224.5.5.5s.5-.224.5-.5v-1z"/>
</symbol>

<symbol id="icon-cursor-4" viewBox="0 0 24 24" fill-rule="evenodd" clip-rule="evenodd">
    <path d="M3 0l18 15h-11.081l-6.919 9z"/>
</symbol>

<symbol id="icon-arrow-48" viewBox="0 0 24 24" fill-rule="evenodd" clip-rule="evenodd">
    <path d="M14 12l-14 9v-18l14 9zm-4-9v4l8.022 5-8.022 5v4l14-9-14-9z"/>
</symbol>

<symbol id="icon-blob1" xmlns="http://www.w3.org/2000/svg" viewBox="35.77 33.06 126.97 125.78">
    <path  d="M36.7,-64.8C43.9,-59.4,43.7,-42.2,49,-29.5C54.4,-16.7,65.3,-8.4,62.2,-1.8C59,4.7,41.7,9.4,35.8,21.2C30,33.1,35.5,52.1,31.4,57.2C27.3,62.4,13.7,53.7,0.9,52.1C-11.8,50.5,-23.7,56,-36.6,56C-49.5,55.9,-63.5,50.3,-64.2,40.1C-64.9,29.8,-52.4,14.9,-45.3,4.1C-38.3,-6.8,-36.8,-13.5,-36,-23.8C-35.3,-34,-35.3,-47.7,-29.5,-53.9C-23.6,-60.1,-11.8,-58.9,1.5,-61.4C14.7,-64,29.4,-70.2,36.7,-64.8Z" transform="translate(100 100)"/>
</symbol>



<symbol id="icon-mysql" xmlns="http://www.w3.org/2000/svg" role="img" viewBox="0 4.03 24 16.3"><title>MySQL icon</title>
<path d="M16.405 5.676c-.115 0-.193.014-.274.033v.013h.014c.054.104.146.18.214.273.054.107.1.214.154.32l.014-.015c.094-.066.14-.172.14-.333-.04-.047-.046-.094-.08-.14-.04-.067-.126-.1-.18-.153zM5.77 18.87h-.927c-.03-1.562-.123-3.03-.27-4.41h-.008l-1.41 4.41H2.45l-1.4-4.41h-.01c-.103 1.323-.168 2.793-.195 4.41H0c.055-1.966.192-3.81.41-5.53h1.15l1.335 4.064h.008L4.25 13.34h1.095c.242 2.015.384 3.86.428 5.53zm4.017-4.08c-.378 2.045-.876 3.533-1.492 4.46-.482.716-1.01 1.073-1.583 1.073-.153 0-.34-.046-.566-.138v-.494c.11.017.24.026.386.026.268 0 .483-.075.647-.222.197-.18.295-.382.295-.605 0-.155-.077-.47-.23-.944L6.23 14.79h.91l.727 2.36c.164.536.233.91.205 1.123.4-1.064.678-2.227.835-3.483h.88zM22.112 18.87h-2.63v-5.53h.885v4.85h1.745zM18.792 19.005l-1.016-.5c.09-.076.177-.158.255-.25.433-.506.648-1.258.648-2.253 0-1.83-.718-2.746-2.155-2.746-.704 0-1.254.232-1.65.697-.43.508-.646 1.256-.646 2.245 0 .972.19 1.686.574 2.14.35.41.877.615 1.583.615.264 0 .506-.033.725-.098l1.325.772.36-.622zM15.5 17.763c-.225-.36-.337-.94-.337-1.736 0-1.393.424-2.09 1.27-2.09.443 0 .77.167.977.5.224.362.336.936.336 1.723 0 1.404-.424 2.108-1.27 2.108-.445 0-.77-.167-.978-.5zM13.842 17.338c0 .47-.172.856-.516 1.156s-.803.45-1.384.45c-.543 0-1.064-.172-1.573-.515l.237-.476c.438.22.833.328 1.19.328.332 0 .593-.073.783-.22.188-.147.3-.354.3-.615 0-.33-.23-.61-.648-.845-.388-.213-1.163-.657-1.163-.657-.422-.307-.632-.636-.632-1.177 0-.45.157-.81.47-1.085.315-.278.72-.415 1.22-.415.512 0 .98.136 1.4.41l-.213.476c-.36-.152-.715-.23-1.064-.23-.283 0-.502.068-.654.206-.153.136-.248.31-.248.524 0 .328.234.61.666.85.393.215 1.187.67 1.187.67.433.305.648.63.648 1.168zM23.224 11.486c-.535-.014-.95.04-1.297.188-.1.04-.26.04-.274.167.055.053.063.14.11.214.08.134.218.313.346.407.14.11.28.216.427.31.26.16.555.255.81.416.145.094.293.213.44.313.073.05.12.14.214.172v-.02c-.046-.06-.06-.147-.105-.214-.067-.067-.134-.127-.2-.193-.194-.26-.435-.487-.695-.675-.214-.146-.682-.35-.77-.595l-.013-.014c.146-.013.32-.066.46-.106.227-.06.435-.047.67-.106.106-.027.213-.06.32-.094v-.06c-.12-.12-.21-.283-.334-.395-.34-.295-.717-.582-1.104-.823-.21-.134-.476-.22-.697-.334-.08-.04-.214-.06-.26-.127-.12-.146-.19-.34-.275-.514-.192-.368-.38-.775-.547-1.163-.12-.262-.193-.523-.34-.763-.69-1.137-1.437-1.826-2.586-2.5-.247-.14-.543-.2-.856-.274-.167-.008-.334-.02-.5-.027-.11-.047-.216-.174-.31-.235-.38-.24-1.364-.76-1.644-.072-.18.434.267.862.422 1.082.115.153.26.328.34.5.047.116.06.235.107.356.106.294.207.622.347.897.073.14.153.287.247.413.054.073.146.107.167.227-.094.136-.1.334-.154.5-.24.757-.146 1.693.194 2.25.107.166.362.534.703.393.3-.12.234-.5.32-.835.02-.08.007-.133.048-.187v.015c.094.188.188.367.274.555.206.328.566.668.867.895.16.12.287.328.487.402v-.02h-.015c-.043-.058-.1-.086-.154-.133-.12-.12-.255-.267-.35-.4-.28-.377-.527-.79-.747-1.218-.11-.21-.202-.436-.29-.643-.04-.08-.04-.2-.107-.24-.1.146-.247.273-.32.453-.127.288-.14.642-.188 1.01-.027.007-.014 0-.027.014-.214-.052-.287-.274-.367-.46-.2-.475-.233-1.238-.06-1.785.047-.14.247-.582.167-.716-.042-.127-.174-.2-.247-.303-.087-.124-.18-.285-.24-.427-.16-.374-.24-.788-.414-1.162-.08-.173-.22-.354-.334-.513-.127-.18-.267-.307-.368-.52-.033-.073-.08-.194-.027-.274.014-.054.042-.075.094-.09.088-.072.335.022.422.062.247.1.455.194.662.334.094.066.195.193.315.226h.14c.214.047.455.014.655.073.355.114.675.28.962.46.876.556 1.596 1.345 2.085 2.286.08.154.115.295.188.455.14.33.313.663.455.982.14.315.275.636.476.897.1.14.502.213.682.286.133.06.34.115.46.188.23.14.454.3.67.454.11.076.443.243.463.378z"/>
</symbol>


<svg id="icon-sass" xmlns="http://www.w3.org/2000/svg" xmlns:xlink="http://www.w3.org/1999/xlink" version="1.1" viewBox="0.33 4.58 31.36 23.4">
    <path fill="#444444" d="M31.641 21.161c-0.109-0.911-0.578-1.618-1.286-2.172-0.82-0.641-1.78-0.905-2.803-0.947-0.834-0.034-1.65 0.090-2.437 0.376-0.224 0.081-0.444 0.177-0.67 0.268-0.030-0.055-0.062-0.107-0.088-0.162-0.232-0.474-0.512-0.927-0.573-1.47-0.044-0.386-0.098-0.772-0.006-1.153 0.088-0.367 0.204-0.728 0.312-1.091 0.056-0.187 0.017-0.291-0.161-0.375-0.062-0.029-0.129-0.055-0.197-0.065-0.438-0.063-0.869-0.027-1.293 0.096-0.15 0.044-0.259 0.128-0.292 0.294-0.019 0.095-0.058 0.186-0.084 0.28-0.111 0.391-0.189 0.789-0.368 1.161-0.449 0.934-0.96 1.832-1.485 2.724-0.057 0.096-0.116 0.191-0.188 0.308-0.184-0.385-0.38-0.73-0.44-1.136-0.067-0.458-0.12-0.915-0.006-1.37 0.085-0.339 0.196-0.672 0.298-1.006 0.049-0.159 0.026-0.242-0.118-0.326-0.073-0.042-0.155-0.080-0.237-0.092-0.454-0.067-0.901-0.032-1.338 0.11-0.136 0.044-0.207 0.132-0.249 0.272-0.122 0.413-0.226 0.836-0.397 1.229-0.694 1.59-1.407 3.172-2.12 4.753-0.149 0.33-0.323 0.649-0.491 0.97-0.043 0.082-0.104 0.153-0.157 0.23-0.043-0.050-0.059-0.085-0.059-0.119 0.001-0.203-0.023-0.413 0.016-0.609 0.117-0.594 0.252-1.186 0.395-1.775 0.117-0.486 0.254-0.968 0.385-1.452 0.044-0.162 0.045-0.313-0.072-0.449-0.195-0.228-0.603-0.278-0.845-0.102-0.026 0.019-0.057 0.032-0.107 0.061 0.009-0.077 0.014-0.125 0.021-0.173 0.051-0.37 0.061-0.738-0.040-1.103-0.127-0.454-0.45-0.715-0.921-0.701-0.22 0.007-0.45 0.044-0.653 0.124-0.855 0.335-1.512 0.928-2.071 1.642-0.051 0.065-0.118 0.124-0.189 0.163-0.723 0.401-1.449 0.797-2.174 1.195-0.271 0.148-0.542 0.297-0.807 0.442-0.216-0.207-0.413-0.421-0.637-0.603-0.682-0.556-1.375-1.098-2.061-1.648-0.608-0.487-1.198-0.995-1.649-1.64-0.336-0.48-0.552-1.005-0.572-1.599-0.026-0.756 0.188-1.447 0.573-2.091 0.493-0.823 1.164-1.483 1.903-2.082 0.781-0.633 1.626-1.17 2.502-1.66 1.225-0.686 2.486-1.293 3.837-1.694 1.386-0.411 2.791-0.646 4.241-0.482 0.57 0.064 1.123 0.195 1.632 0.474 0.389 0.213 0.708 0.492 0.857 0.929 0.146 0.43 0.142 0.865 0.040 1.301-0.206 0.883-0.69 1.612-1.299 2.263-0.998 1.067-2.216 1.793-3.588 2.273-0.791 0.277-1.605 0.451-2.441 0.521-0.682 0.057-1.35-0.003-1.996-0.241-0.428-0.157-0.8-0.398-1.1-0.747-0.054-0.063-0.122-0.13-0.222-0.072-0.098 0.057-0.115 0.151-0.082 0.245 0.055 0.157 0.105 0.319 0.191 0.459 0.214 0.351 0.527 0.606 0.871 0.825 0.661 0.42 1.399 0.561 2.165 0.594 1.162 0.050 2.296-0.123 3.413-0.435 1.596-0.445 2.983-1.231 4.096-2.471 0.927-1.032 1.588-2.198 1.73-3.605 0.069-0.687-0.004-1.36-0.326-1.986-0.349-0.679-0.903-1.147-1.566-1.494-0.964-0.506-2.006-0.705-3.081-0.763-0.359-0-0.718-0-1.077-0-1.303 0.063-2.562 0.337-3.786 0.782-0.926 0.337-1.835 0.717-2.717 1.157-1.921 0.96-3.71 2.108-5.179 3.699-0.732 0.793-1.352 1.663-1.708 2.693-0.104 0.302-0.168 0.622-0.243 0.934-0.006 0.026 0.023 0.051-0.041 0.077 0 0.147 0 0.293 0 0.44 0.064 0.113 0.071 0.225 0.1 0.338 0.189 0.733 0.578 1.363 1.060 1.937 0.687 0.818 1.518 1.476 2.38 2.096 0.747 0.537 1.505 1.062 2.255 1.595 0.129 0.091 0.248 0.197 0.388 0.309-0.12 0.065-0.221 0.122-0.325 0.175-0.99 0.502-1.942 1.065-2.82 1.747-0.529 0.411-1.041 0.848-1.402 1.418-0.581 0.918-0.787 1.896-0.354 2.94 0.127 0.305 0.32 0.569 0.592 0.763 0.088 0.063 0.187 0.126 0.29 0.15 0.264 0.062 0.534 0.103 0.802 0.152 0.253-0 0.505-0 0.758-0 0.839-0.075 1.602-0.362 2.291-0.838 1.078-0.744 1.804-1.741 2.117-3.022 0.227-0.93 0.236-1.862-0.031-2.788-0.025-0.086-0.056-0.17-0.089-0.253s-0.071-0.164-0.116-0.268c0.572-0.329 1.146-0.659 1.719-0.989 0.009 0.007 0.017 0.015 0.026 0.022-0.031 0.102-0.064 0.204-0.093 0.308-0.204 0.746-0.34 1.505-0.291 2.279 0.052 0.825 0.282 1.597 0.765 2.287 0.39 0.558 1.321 0.578 1.736 0.019 0.147-0.199 0.29-0.406 0.397-0.628 0.28-0.579 0.54-1.168 0.807-1.753 0.012-0.025 0.022-0.050 0.047-0.107-0.019 0.277-0.042 0.52-0.052 0.764-0.016 0.38 0.006 0.758 0.136 1.12 0.111 0.31 0.3 0.541 0.655 0.581 0.242 0.028 0.436-0.083 0.614-0.224 0.279-0.22 0.505-0.491 0.673-0.8 0.475-0.873 0.963-1.74 1.394-2.635 0.466-0.968 0.873-1.964 1.306-2.948 0.024-0.054 0.045-0.109 0.072-0.175 0.102 0.402 0.174 0.795 0.305 1.168 0.152 0.432 0.341 0.854 0.547 1.264 0.097 0.194 0.086 0.32-0.049 0.482-0.564 0.68-1.118 1.368-1.673 2.056-0.123 0.152-0.245 0.306-0.347 0.472-0.062 0.101-0.103 0.223-0.12 0.341-0.033 0.225 0.105 0.441 0.346 0.493 0.219 0.047 0.453 0.065 0.677 0.048 0.774-0.057 1.477-0.329 2.099-0.789 0.805-0.597 1.064-1.41 0.869-2.375-0.053-0.262-0.146-0.517-0.237-0.769-0.041-0.114-0.043-0.194 0.031-0.3 0.644-0.919 1.194-1.895 1.705-2.892 0.020-0.039 0.041-0.079 0.076-0.121 0.166 0.863 0.415 1.694 0.862 2.448-0.228 0.22-0.454 0.419-0.658 0.639-0.45 0.483-0.84 1.009-1.043 1.649-0.087 0.276-0.155 0.556-0.116 0.852 0.061 0.458 0.436 0.755 0.886 0.651 0.963-0.223 1.795-0.677 2.403-1.481 0.409-0.541 0.446-1.145 0.275-1.778-0.047-0.172-0.103-0.341-0.163-0.539 0.238-0.074 0.47-0.162 0.709-0.217 1.245-0.284 2.476-0.234 3.675 0.215 0.7 0.262 1.266 0.702 1.601 1.393 0.41 0.845 0.183 1.646-0.613 2.18-0.074 0.050-0.159 0.089-0.221 0.151-0.038 0.038-0.060 0.115-0.051 0.167 0.005 0.031 0.087 0.069 0.133 0.069 0.262-0.002 0.474-0.139 0.678-0.28 0.511-0.353 0.848-0.829 0.928-1.454 0.002-0.018-0.024-0.035 0.040-0.052 0-0.139 0-0.277 0-0.416-0.064-0.017-0.037-0.034-0.039-0.052zM7.286 22.851c-0.083 1.115-0.588 2.019-1.414 2.75-0.465 0.412-0.997 0.705-1.618 0.808-0.225 0.037-0.455 0.046-0.674-0.047-0.311-0.133-0.381-0.409-0.387-0.704-0.009-0.469 0.155-0.893 0.38-1.296 0.294-0.526 0.725-0.927 1.185-1.301 0.725-0.59 1.512-1.090 2.317-1.561 0.013-0.008 0.029-0.012 0.061-0.025 0.124 0.46 0.184 0.914 0.149 1.377zM13.576 18.006c-0.059 0.356-0.132 0.712-0.236 1.057-0.36 1.194-0.821 2.352-1.32 3.493-0.092 0.211-0.226 0.404-0.343 0.604-0.018 0.031-0.045 0.058-0.071 0.084-0.144 0.143-0.282 0.135-0.355-0.052-0.085-0.217-0.137-0.449-0.182-0.679-0.030-0.154-0.023-0.316-0.032-0.474 0.010-1.123 0.352-2.145 0.934-3.095 0.24-0.392 0.501-0.765 0.899-1.014 0.123-0.076 0.26-0.137 0.399-0.177 0.212-0.060 0.343 0.039 0.308 0.252zM17.867 23.473c0.514-0.6 1.027-1.199 1.542-1.801 0.064 0.669-1.072 2.004-1.542 1.801zM22.793 22.262c-0.109 0.062-0.228 0.108-0.34 0.165-0.102 0.053-0.136-0-0.139-0.088-0.002-0.060 0.007-0.122 0.023-0.18 0.208-0.735 0.591-1.361 1.162-1.871 0.008-0.008 0.021-0.011 0.040-0.021 0.271 0.758-0.042 1.592-0.747 1.995z"/>
</svg>

<symbol id="icon-vue-dot-js" viewBox="0 0 32 32">
<path  d="M32 2.147h-13.253l-2.747 4.733-2.747-4.733h-13.253l16 27.707zM16 18.773l-9.12-15.8h5.907l3.213 5.573 3.213-5.573h5.907z"></path>
</symbol>


<symbol id="icon-laravel" xmlns="http://www.w3.org/2000/svg" viewBox="1 5 30 21">
    <path d="M 7.5566406 5.0058594 C 6.8996406 5.0338594 1.8892031 5.4591875 1.5332031 5.4921875 C 1.1772031 5.5211875 0.784625 5.6858281 1.140625 6.5488281 C 1.496625 7.4118281 7.1857031 19.951406 7.3457031 20.316406 C 7.5047031 20.680406 7.9178125 21.275156 8.8828125 21.035156 C 9.8718125 20.791156 13.302734 19.874094 15.177734 19.371094 C 16.166734 21.207094 18.1875 24.928938 18.5625 25.460938 C 19.0595 26.174937 19.405922 26.053453 20.169922 25.814453 C 20.769922 25.627453 29.525922 22.407141 29.919922 22.244141 C 30.313922 22.076141 30.556062 21.961688 30.289062 21.554688 C 30.092063 21.257687 27.781266 18.092594 26.572266 16.433594 C 27.402266 16.208594 30.350063 15.407406 30.664062 15.316406 C 31.033063 15.219406 31.084812 15.038594 30.882812 14.808594 C 30.685813 14.578594 27.940031 11.064703 27.457031 10.470703 C 26.974031 9.8767031 26.734453 9.9804375 26.439453 10.023438 C 26.139453 10.066437 22.666672 10.665422 22.263672 10.732422 C 21.860672 10.804422 21.607469 10.967266 21.855469 11.322266 C 22.075469 11.638266 24.359234 14.952641 24.865234 15.681641 L 15.785156 17.904297 L 8.5605469 5.5605469 C 8.2745469 5.1245469 8.2126406 4.9718594 7.5566406 5.0058594 z M 7.4433594 5.8632812 C 7.6123594 5.8532813 7.5932969 5.8910937 7.6542969 5.9960938 C 7.6542969 5.9960938 14.319641 17.760797 14.431641 17.966797 C 14.553641 18.172797 14.484953 18.235766 14.376953 18.259766 C 14.268953 18.283766 9.1821563 19.528797 8.9101562 19.591797 C 8.6381562 19.653797 8.6384688 19.625297 8.6054688 19.529297 C 8.5724688 19.433297 2.5605625 6.7449375 2.4765625 6.5859375 C 2.3925625 6.4279375 2.3965625 6.3027344 2.4765625 6.3027344 C 2.5565625 6.3027344 7.2793594 5.8722812 7.4433594 5.8632812 z M 26.771484 10.845703 C 26.838859 10.861328 26.909641 10.911797 26.994141 11.029297 C 27.163141 11.264297 29.459828 14.240469 29.548828 14.355469 C 29.632828 14.466469 29.482156 14.534031 29.285156 14.582031 C 29.088156 14.625031 25.835938 15.449219 25.835938 15.449219 L 23.177734 11.720703 C 23.102734 11.610703 23.042469 11.504469 23.230469 11.480469 C 23.417469 11.456469 26.436266 10.894234 26.572266 10.865234 C 26.640266 10.848234 26.704109 10.830078 26.771484 10.845703 z M 25.527344 16.617188 C 25.590094 16.624312 25.642891 16.66875 25.712891 16.78125 C 25.849891 17.01225 28.63875 20.881719 28.71875 21.011719 C 28.79875 21.140719 28.881047 21.227359 28.623047 21.318359 C 28.370047 21.414359 20.014469 24.295188 19.855469 24.367188 C 19.691469 24.439187 19.563422 24.462391 19.357422 24.150391 C 19.151422 23.838391 16.433594 19.03125 16.433594 19.03125 L 25.28125 16.677734 C 25.39125 16.641734 25.464594 16.610063 25.527344 16.617188 z"/>
</symbol>

<symbol id="icon-javascript" viewBox="0 0 32 32">
<path   d="M0 0h32v32h-32zM29.379 24.368c-0.233-1.46-1.184-2.687-4.004-3.831-0.981-0.46-2.072-0.78-2.396-1.52-0.121-0.44-0.14-0.68-0.061-0.94 0.2-0.861 1.22-1.12 2.020-0.88 0.52 0.16 1 0.56 1.301 1.2 1.379-0.901 1.379-0.901 2.34-1.5-0.36-0.56-0.539-0.801-0.781-1.040-0.84-0.94-1.959-1.42-3.779-1.379l-0.94 0.119c-0.901 0.22-1.76 0.7-2.28 1.34-1.52 1.721-1.081 4.721 0.759 5.961 1.82 1.36 4.481 1.659 4.821 2.94 0.32 1.56-1.16 2.060-2.621 1.88-1.081-0.24-1.68-0.781-2.34-1.781l-2.44 1.401c0.28 0.64 0.6 0.919 1.080 1.479 2.32 2.341 8.12 2.221 9.161-1.339 0.039-0.12 0.32-0.94 0.099-2.2zM17.401 14.708h-2.997c0 2.584-0.012 5.152-0.012 7.74 0 1.643 0.084 3.151-0.184 3.615-0.44 0.919-1.573 0.801-2.088 0.64-0.528-0.261-0.796-0.621-1.107-1.14-0.084-0.14-0.147-0.261-0.169-0.261l-2.433 1.5c0.407 0.84 1 1.563 1.765 2.023 1.14 0.68 2.672 0.9 4.276 0.54 1.044-0.301 1.944-0.921 2.415-1.881 0.68-1.24 0.536-2.76 0.529-4.461 0.016-2.739 0-5.479 0-8.239z"></path>
</symbol>


<symbol id="icon-php" viewBox="0 0 32 32">
<path   d="M9.347 13.609h-1.259l-0.687 3.531h1.117c0.741 0 1.293-0.14 1.656-0.419 0.363-0.28 0.607-0.745 0.733-1.399 0.123-0.627 0.067-1.069-0.165-1.327-0.233-0.257-0.697-0.387-1.396-0.387zM16 7.584c-8.836 0-16 3.768-16 8.416s7.164 8.417 16 8.417 16-3.769 16-8.417-7.164-8.416-16-8.416zM11.653 17.519c-0.348 0.333-0.767 0.584-1.223 0.735-0.448 0.144-1.020 0.219-1.713 0.219h-1.575l-0.436 2.241h-1.837l1.64-8.435h3.533c1.063 0 1.837 0.279 2.325 0.837 0.488 0.557 0.635 1.336 0.44 2.336-0.082 0.425-0.223 0.803-0.416 1.148l0.010-0.019c-0.191 0.34-0.44 0.653-0.748 0.937zM17.019 18.472l0.724-3.732c0.084-0.424 0.052-0.715-0.091-0.868-0.143-0.155-0.448-0.232-0.916-0.232h-1.456l-0.939 4.833h-1.824l1.64-8.436h1.823l-0.436 2.243h1.624c1.023 0 1.727 0.179 2.115 0.535s0.504 0.933 0.351 1.732l-0.763 3.925zM27.148 15.452c-0.080 0.425-0.221 0.803-0.416 1.148l0.010-0.018c-0.191 0.34-0.44 0.653-0.748 0.937-0.338 0.323-0.746 0.574-1.2 0.728l-0.023 0.007c-0.448 0.144-1.020 0.219-1.715 0.219h-1.573l-0.436 2.243h-1.837l1.64-8.435h3.532c1.063 0 1.837 0.279 2.325 0.837 0.488 0.556 0.636 1.335 0.441 2.335zM23.688 13.609h-1.257l-0.688 3.531h1.117c0.743 0 1.295-0.14 1.656-0.419 0.363-0.28 0.607-0.745 0.735-1.399 0.123-0.627 0.065-1.069-0.167-1.327s-0.699-0.387-1.396-0.387z"></path>
</symbol>

<symbol id="icon-github" viewBox="0 0 32 32">
<path d="M16 0.395c-8.836 0-16 7.163-16 16 0 7.069 4.585 13.067 10.942 15.182 0.8 0.148 1.094-0.347 1.094-0.77 0-0.381-0.015-1.642-0.022-2.979-4.452 0.968-5.391-1.888-5.391-1.888-0.728-1.849-1.776-2.341-1.776-2.341-1.452-0.993 0.11-0.973 0.11-0.973 1.606 0.113 2.452 1.649 2.452 1.649 1.427 2.446 3.743 1.739 4.656 1.33 0.143-1.034 0.558-1.74 1.016-2.14-3.554-0.404-7.29-1.777-7.29-7.907 0-1.747 0.625-3.174 1.649-4.295-0.166-0.403-0.714-2.030 0.155-4.234 0 0 1.344-0.43 4.401 1.64 1.276-0.355 2.645-0.532 4.005-0.539 1.359 0.006 2.729 0.184 4.008 0.539 3.054-2.070 4.395-1.64 4.395-1.64 0.871 2.204 0.323 3.831 0.157 4.234 1.026 1.12 1.647 2.548 1.647 4.295 0 6.145-3.743 7.498-7.306 7.895 0.574 0.497 1.085 1.47 1.085 2.963 0 2.141-0.019 3.864-0.019 4.391 0 0.426 0.288 0.925 1.099 0.768 6.354-2.118 10.933-8.113 10.933-15.18 0-8.837-7.164-16-16-16z"></path>
</symbol>


<svg id="icon-linkedin" xmlns="http://www.w3.org/2000/svg" viewBox="0 1 24 23">
    <path d="M4.98 3.5c0 1.381-1.11 2.5-2.48 2.5s-2.48-1.119-2.48-2.5c0-1.38 1.11-2.5 2.48-2.5s2.48 1.12 2.48 2.5zm.02 4.5h-5v16h5v-16zm7.982 0h-4.968v16h4.969v-8.399c0-4.67 6.029-5.052 6.029 0v8.399h4.988v-10.131c0-7.88-8.922-7.593-11.018-3.714v-2.155z"/>
</svg>

<svg id="icon-facebook" xmlns="http://www.w3.org/2000/svg" viewBox="6 0 12 24">
    <path d="M9 8h-3v4h3v12h5v-12h3.642l.358-4h-4v-1.667c0-.955.192-1.333 1.115-1.333h2.885v-5h-3.808c-3.596 0-5.192 1.583-5.192 4.615v3.385z"/>
</svg>

<svg id="icon-aws" xmlns="http://www.w3.org/2000/svg" viewBox="0 4.8 24 15">
    <path d="m12.248 6.685c-.656 2.694-.614 2.55-1.209 5.014-.013.227-.201.406-.43.406-.025 0-.05-.002-.074-.006h.003-.675c-.02.004-.044.006-.067.006-.203 0-.37-.151-.396-.346v-.002c-.577-1.846-1.35-4.41-1.87-6.125-.192-.633-.066-.618.436-.605.174.005.342 0 .515 0 .012-.001.026-.002.041-.002.196 0 .358.145.385.333v.002c.169.605.281 1.069 1.246 4.88.018.075.042.146.066.215h.051c.023-.094.051-.182.075-.277q.548-2.313 1.092-4.63c.113-.48.314-.525.8-.525h.356c.32.005.422.07.502.389.281 1.097 1.102 4.77 1.251 5.174.24-.858-.084.37 1.336-5.108.098-.379.192-.454.577-.454h.591c.253.005.328.084.267.333-.113.446-.136.464-1.935 6.228-.146.464-.197.506-.684.506h-.497c-.342 0-.431-.061-.515-.394-.202-.759-1.092-4.485-1.238-5.01zm-6.364 5.211c.068.139.208.233.37.233.114 0 .216-.046.291-.121l.295-.197c.32-.211.342-.295.169-.633-.186-.354-.296-.773-.296-1.218 0-.015 0-.03 0-.045v.002c0-.146.028-2.61-.042-3.13-.062-.87-.665-1.584-1.471-1.811l-.014-.003c-.353-.098-.758-.154-1.177-.154-.126 0-.252.005-.375.015l.016-.001c-.736.029-1.42.224-2.025.547l.025-.012c-.091.049-.159.13-.191.227l-.001.003c-.026.118-.041.254-.041.393 0 .061.003.122.008.182l-.001-.008c.028.277.122.328.384.24.24-.08.469-.182.708-.253.345-.128.743-.202 1.159-.202.323 0 .635.045.931.128l-.024-.006c.317.095.564.334.668.639l.002.007c.077.258.122.554.122.861 0 .094-.004.188-.012.28l.001-.012c0 .258-.005.258-.258.211-.43-.107-.923-.169-1.431-.169-.187 0-.373.008-.556.025l.024-.002c-.726.053-1.36.406-1.787.933l-.004.005c-.26.36-.416.811-.416 1.298 0 .197.025.387.073.569l-.003-.016c.104.682.588 1.228 1.225 1.422l.012.003c.28.1.603.158.94.158.667 0 1.282-.227 1.77-.608l-.006.005c.178-.131.338-.29.52-.446.146.234.272.454.417.656zm-.72-2.887h.005c.111 0 .201.09.201.201 0 .014-.001.027-.004.041v-.001c-.01.178.005.356-.014.534-.05.523-.377.959-.83 1.164l-.009.004c-.294.154-.641.245-1.01.245-.075 0-.149-.004-.222-.011l.009.001c-.529-.031-.946-.467-.946-1.001 0-.082.01-.162.029-.239l-.001.007c.026-.548.46-.987 1.004-1.021h.003c.21-.034.452-.053.698-.053.388 0 .766.048 1.126.138l-.032-.007zm16.346 3.051c.825-.277 1.408-1.043 1.408-1.945 0-.141-.014-.279-.041-.412l.002.013c-.107-.653-.564-1.177-1.169-1.379l-.012-.004c-.912-.286-1.659-.575-2.383-.905l.129.053c-.209-.105-.351-.315-.356-.559v-.001c-.006-.037-.009-.079-.009-.122 0-.419.318-.763.726-.805h.003c.211-.05.453-.078.702-.078.217 0 .43.022.635.063l-.02-.003c.342.066.67.197 1.003.295.131.042.277.098.366-.075.046-.097.073-.211.073-.33 0-.298-.166-.557-.411-.689l-.004-.002c-.494-.236-1.074-.373-1.686-.373-.546 0-1.066.11-1.54.308l.026-.01c-.725.288-1.228.984-1.228 1.797 0 .779.462 1.451 1.127 1.755l.012.005c.361.174.754.277 1.134.417s.759.272 1.13.426c.256.142.427.411.427.72 0 .286-.146.537-.368.684l-.003.002c-1.298.72-3.04-.113-3.243-.178-.154-.051-.248.01-.295.174-.038.089-.06.193-.06.302 0 .369.255.679.599.761l.005.001c.531.213 1.146.336 1.79.336.546 0 1.072-.089 1.563-.253l-.035.01zm-7.634 7.625c2.498-.268 4.766-1.052 6.763-2.244l-.076.042c.375-.22.726-.48 1.082-.736.342-.24.15-.862-.53-.572-2.344 1.029-5.066 1.687-7.925 1.821l-.051.002c-.3.015-.651.023-1.004.023-1.152 0-2.284-.088-3.389-.258l.123.016c-3.117-.449-5.924-1.458-8.429-2.927l.109.059c-.088-.059-.189-.107-.297-.139l-.008-.002c-.23-.051-.361.22-.113.454 3.069 2.838 7.189 4.578 11.716 4.578h.014-.001c.675-.038 1.35-.042 2.015-.117zm8.187-4.32c.694.038.909.277.736.946-.178.694-.436 1.369-.651 2.053-.042.136-.197.295-.038.413.174.122.305-.047.422-.154.455-.433.813-.962 1.044-1.555l.01-.029c.258-.564.408-1.224.408-1.919 0-.016 0-.031 0-.047v.002c-.01-.29-.084-.413-.366-.492-.224-.069-.487-.122-.757-.148l-.016-.001c-.183-.023-.394-.036-.609-.036-.836 0-1.626.197-2.327.546l.03-.014c-.155.084-.289.176-.412.28l.004-.003c-.051.042-.15.248.113.286.024.002.053.003.081.003.069 0 .137-.006.202-.018l-.007.001c.526-.075 1.134-.118 1.751-.118.134 0 .267.002.4.006h-.019z"/>
</svg>

<symbol id="icon-apache" xmlns="http://www.w3.org/2000/svg" role="img" viewBox="5.21 0 13.58 24"><title>Apache icon</title>
    <path d="M15.826 0a.776.776 0 0 0-.404.114c-.376.222-1.002.851-1.748 1.763l-.156.192c-.198.246-.403.512-.614.793a38.775 38.775 0 0 0-2.016 2.971l-.022.036-.044.072a40.932 40.932 0 0 0-1.709 3.081 25.602 25.602 0 0 0-1.1 2.557c-.091.251-.174.493-.25.726-.062.199-.122.398-.178.596-.133.467-.248.934-.342 1.398l.001.002-.013.061a14 14 0 0 0-.233 1.692l-.005.059c-.28-.449-1.029-.886-1.028-.882.537.778.944 1.55 1.004 2.308-.287.059-.681-.026-1.136-.194.474.436.83.556.969.588-.436.027-.889.327-1.346.671.668-.273 1.208-.38 1.595-.293a131.873 131.873 0 0 0-1.843 5.688.535.535 0 0 0 .364-.354c.11-.369.837-2.786 1.977-5.964l.098-.273.028-.076c.12-.333.245-.673.374-1.02l.089-.237.002-.005-.604-1.193.604 1.192c.119-.317.24-.638.365-.963l.052-.136.053-.137.041-.104-.041.105-.053.136-.052.136c-.125.325-.246.646-.365.963l.106.208.094-.01.01-.028c.153-.417.304-.824.454-1.22l.005-.014a103.604 103.604 0 0 0-.458 1.234l-.01.028-.067.183c-.118.325-.237.655-.356.993l-.005.015-.051.143c-.08.228-.15.433-.309.899.263.12.474.436.674.794a1.44 1.44 0 0 0-.466-.989c1.296.058 2.413-.269 2.991-1.217.052-.085.099-.173.141-.268-.262.333-.588.474-1.2.439.902-.404 1.354-.791 1.754-1.433a6.71 6.71 0 0 0 .281-.503c-.789.81-1.702 1.04-2.665.865h-.002l-.041-.007c.863-.107 2.01-.752 2.752-1.548.342-.367.652-.8.939-1.306.214-.377.414-.795.605-1.258.167-.404.327-.842.482-1.317a2.65 2.65 0 0 1-.81.261 4.998 4.998 0 0 1-.138.022l.002-.001.003-.001c.045-.007.089-.013.133-.021.045-.008.09-.016.134-.026l-.133.024-.132.023c.802-.31 1.308-.907 1.676-1.637a2.877 2.877 0 0 1-.968.424 3.217 3.217 0 0 1-.171.031l-.043.006.001-.001.009-.001.032-.005a2.887 2.887 0 0 0 .157-.029l.014-.003-.016.003-.194.033c.278-.117.513-.247.717-.401a2.858 2.858 0 0 0 .411-.391c.08-.095.155-.198.225-.31l.064-.104.077-.152a9.024 9.024 0 0 0 .368-.851l.031-.088c.028-.085.052-.161.07-.227.027-.099.044-.178.053-.236a.731.731 0 0 1-.094.064c-.243.145-.66.277-.996.339l-.099.011-.001.001-2.267.249-.012.024-.077.158-.235.488-.044.093.044-.093c.079-.166.157-.329.235-.488l.077-.158c.004-.009.009-.017.012-.026l-.084.009-.067-.132a54.24 54.24 0 0 0-.378.763l-.204.424a72.02 72.02 0 0 0-1.092 2.406 102.271 102.271 0 0 0-1.081 2.603l.086-.216a99.75 99.75 0 0 1 .995-2.387 73.112 73.112 0 0 1 1.092-2.407l.204-.424c.118-.244.237-.485.358-.724l.02-.038c.191-.378.384-.75.579-1.116.208-.39.42-.771.633-1.141a33.1 33.1 0 0 1 .672-1.119l.04-.064c.224-.354.45-.695.677-1.021a16.736 16.736 0 0 1 1.522-1.899l-.058.062c-.16.176-.644.741-1.375 1.863.704-.035 1.785-.179 2.667-.33.262-1.47-.257-2.142-.257-2.142S16.418.007 15.83.001zm-1.648 7.507c.66-.304.956-.579 1.242-.976.076-.11.153-.224.229-.343.233-.363.461-.764.665-1.162.197-.384.371-.765.504-1.109a5.76 5.76 0 0 0 .2-.6c.041-.157.074-.307.099-.449-.883.15-1.964.295-2.668.329a29.873 29.873 0 0 0-.696 1.122c-.204.345-.422.723-.65 1.137a50.238 50.238 0 0 0-1.193 2.299l2.267-.249zm3.628-5.309v.066h.156v.439h.072v-.439h.157v-.066h-.384zm.463 0v.506h.066v-.401l.172.348h.046l.172-.348v.401h.066v-.506h-.087l-.174.353-.175-.353h-.087zm-4.008 5.301l-.102.016.001-.001.1-.016zm-.09.012l-.005.002.005-.002zm-2.74 1.242l-.106.227-.133.287a77.678 77.678 0 0 0-.921 2.085 93.883 93.883 0 0 0-.999 2.446c-.148.378-.298.765-.449 1.163l-.005.014a77.678 77.678 0 0 1 2.374-5.709l.133-.287.106-.226z"/>
</symbol>

<symbol id="icon-git" xmlns="http://www.w3.org/2000/svg" fill-rule="evenodd" clip-rule="evenodd" viewBox="0 0 24 24">
    <path d="M23.548 10.931l-10.479-10.478c-.302-.302-.698-.453-1.093-.453-.396 0-.791.151-1.093.453l-2.176 2.176 2.76 2.76c.642-.216 1.377-.071 1.889.44.513.515.658 1.256.435 1.9l2.66 2.66c.644-.222 1.387-.078 1.901.437.718.718.718 1.881 0 2.6-.719.719-1.883.719-2.602 0-.54-.541-.674-1.334-.4-2l-2.481-2.481v6.529c.175.087.34.202.487.348.717.717.717 1.881 0 2.601-.719.718-1.884.718-2.601 0-.719-.72-.719-1.884 0-2.601.177-.178.383-.312.602-.402v-6.589c-.219-.089-.425-.223-.602-.401-.544-.544-.676-1.343-.396-2.011l-2.721-2.721-7.185 7.185c-.302.302-.453.697-.453 1.093 0 .395.151.791.453 1.093l10.479 10.478c.302.302.697.452 1.092.452.396 0 .791-.15 1.093-.452l10.431-10.428c.302-.303.452-.699.452-1.094 0-.396-.15-.791-.452-1.093"/>
</symbol>

<svg  id="icon-html" version="1.1" xmlns="http://www.w3.org/2000/svg"  viewBox="0 0 32 32">
    <title>html5</title>
    <path  d="M2 0h28l-2.547 28.751-11.484 3.249-11.419-3.251zM11.375 13l-0.309-3.624 13.412 0.004 0.307-3.496-17.568-0.004 0.931 10.68h12.168l-0.435 4.568-3.88 1.072-3.94-1.080-0.251-2.813h-3.479l0.44 5.561 7.229 1.933 7.172-1.924 0.992-10.876z"></path>
</svg>


<symbol id="icon-css" version="1.1" xmlns="http://www.w3.org/2000/svg"  viewBox="0 0 32 32">
    <title>css3</title>
    <path  d="M2 0h28l-2.547 28.751-11.484 3.249-11.42-3.251zM24.787 5.884l-17.573-0.004 0.284 3.496 13.5 0.003-0.34 3.621h-8.853l0.32 3.431h8.243l-0.488 4.697-3.88 1.072-3.941-1.080-0.251-2.813h-3.48l0.387 5.14 7.287 2.271 7.164-2.040z"></path>
</symbol>
    

</defs>
</svg>
