<svg id="svg" version="1.1" xmlns="http://www.w3.org/2000/svg" xmlns:xlink="http://www.w3.org/1999/xlink" width="400" height="240" viewBox="0, 0, 400,240"><g id="svgg"><path id="path0" d="M32.366 8.132 C 31.825 8.905,32.324 16.588,33.109 19.568 C 33.249 20.096,33.479 21.447,33.621 22.569 C 33.763 23.691,34.027 24.836,34.207 25.112 C 34.387 25.388,34.669 26.306,34.832 27.152 C 34.996 27.999,35.329 29.068,35.572 29.528 C 35.815 29.988,36.014 30.517,36.014 30.702 C 36.014 30.887,36.447 31.940,36.975 33.042 C 37.503 34.143,37.935 35.111,37.935 35.191 C 37.935 35.272,38.147 35.607,38.405 35.936 C 39.043 36.747,38.848 37.643,37.575 39.736 C 37.013 40.660,36.363 41.795,36.130 42.257 C 35.898 42.719,35.629 43.151,35.533 43.217 C 35.437 43.283,35.101 43.806,34.786 44.378 C 33.553 46.621,33.406 46.865,33.053 47.255 C 31.429 49.050,31.415 50.883,32.997 54.571 C 33.351 55.395,33.353 55.554,33.018 56.259 C 32.560 57.224,30.473 59.881,27.731 62.991 C 26.713 64.146,25.782 65.259,25.090 66.150 C 24.694 66.660,23.686 67.894,22.851 68.893 C 21.221 70.841,20.160 72.115,18.555 74.049 C 17.998 74.721,17.267 75.585,16.931 75.969 C 16.158 76.853,16.298 77.362,17.663 78.631 C 22.264 82.911,26.135 85.091,29.801 85.467 C 32.279 85.721,38.752 85.349,40.576 84.848 C 41.303 84.648,43.031 84.278,44.418 84.024 C 45.804 83.770,47.209 83.411,47.539 83.226 C 47.869 83.040,48.926 82.757,49.887 82.598 C 52.395 82.181,52.495 82.267,54.602 86.675 C 54.823 87.137,55.153 87.785,55.336 88.115 C 55.518 88.445,56.219 89.796,56.894 91.116 C 57.568 92.437,58.332 93.894,58.592 94.354 C 58.851 94.814,59.064 95.322,59.064 95.483 C 59.064 95.643,59.211 95.861,59.391 95.966 C 59.570 96.072,59.954 96.645,60.243 97.239 C 60.895 98.580,61.487 99.640,62.226 100.792 C 63.003 102.004,63.528 102.935,64.109 104.132 C 64.379 104.687,64.705 105.207,64.833 105.287 C 64.962 105.366,65.288 105.884,65.558 106.437 C 66.068 107.483,66.970 108.862,67.549 109.484 C 67.734 109.682,68.067 110.201,68.289 110.637 C 68.511 111.073,68.855 111.613,69.053 111.837 C 69.605 112.463,71.068 114.729,71.068 114.958 C 71.068 115.071,71.339 115.416,71.669 115.726 C 71.999 116.036,72.269 116.395,72.269 116.523 C 72.269 116.650,72.737 117.307,73.310 117.981 C 73.883 118.656,74.550 119.532,74.794 119.928 C 75.037 120.324,75.460 120.884,75.733 121.171 C 76.007 121.459,76.501 122.086,76.831 122.566 C 77.979 124.235,79.857 126.492,82.233 129.058 C 82.629 129.485,83.330 130.253,83.790 130.764 C 84.703 131.777,85.762 132.352,86.320 132.138 C 86.854 131.933,86.749 131.426,86.014 130.665 C 85.651 130.289,84.652 129.187,83.794 128.216 C 82.935 127.245,81.948 126.171,81.600 125.830 C 80.677 124.925,77.398 120.857,75.870 118.723 C 75.144 117.708,74.307 116.592,74.011 116.242 C 73.247 115.340,72.366 114.067,71.816 113.069 C 71.556 112.598,71.174 112.072,70.966 111.899 C 70.758 111.727,70.588 111.460,70.588 111.306 C 70.588 111.152,70.268 110.652,69.878 110.195 C 69.487 109.738,69.163 109.268,69.157 109.151 C 69.152 109.034,68.634 108.182,68.007 107.259 C 67.380 106.335,66.718 105.297,66.536 104.951 C 66.353 104.605,66.025 104.106,65.805 103.842 C 65.586 103.577,65.218 102.983,64.988 102.521 C 64.758 102.059,64.203 101.086,63.754 100.360 C 63.305 99.634,62.709 98.607,62.429 98.079 C 62.150 97.551,61.603 96.579,61.214 95.918 C 60.825 95.258,60.242 94.161,59.918 93.479 C 59.594 92.798,59.223 92.176,59.094 92.096 C 58.964 92.016,58.729 91.546,58.571 91.053 C 58.413 90.560,58.095 89.940,57.863 89.676 C 57.632 89.412,57.305 88.764,57.138 88.235 C 56.970 87.707,56.639 87.025,56.401 86.720 C 56.164 86.414,55.847 85.793,55.697 85.339 C 55.548 84.885,55.335 84.514,55.226 84.514 C 55.117 84.514,54.863 84.031,54.661 83.440 C 53.782 80.858,52.384 79.963,50.657 80.873 C 50.196 81.116,49.024 81.443,48.050 81.601 C 47.077 81.758,46.076 81.996,45.825 82.130 C 45.575 82.264,44.049 82.587,42.433 82.848 C 40.818 83.108,39.080 83.485,38.571 83.685 C 37.886 83.955,36.547 84.060,33.409 84.091 L 29.172 84.132 27.136 83.227 C 26.016 82.730,25.043 82.236,24.975 82.130 C 24.906 82.024,24.391 81.704,23.830 81.420 C 21.661 80.320,22.562 80.019,28.331 79.913 C 32.766 79.832,33.349 79.773,34.223 79.318 C 34.757 79.039,35.567 78.736,36.024 78.643 C 37.205 78.404,42.897 75.706,43.716 74.998 C 43.925 74.817,44.181 74.670,44.285 74.670 C 44.626 74.670,48.949 72.513,49.100 72.268 C 49.182 72.136,49.437 72.029,49.667 72.029 C 49.897 72.029,50.628 71.759,51.290 71.429 C 51.952 71.099,53.297 70.610,54.278 70.342 C 55.260 70.075,56.495 69.732,57.023 69.580 C 58.280 69.219,68.398 69.227,69.868 69.590 C 70.462 69.737,72.137 70.102,73.589 70.402 C 76.418 70.987,76.860 71.159,76.720 71.616 C 76.671 71.777,76.564 72.213,76.482 72.584 C 76.384 73.030,76.112 73.339,75.682 73.492 C 75.323 73.619,74.706 74.106,74.310 74.573 C 73.914 75.040,73.292 75.755,72.929 76.162 C 72.566 76.569,72.269 77.005,72.269 77.132 C 72.269 77.258,72.008 77.671,71.690 78.050 C 69.906 80.170,69.809 87.517,71.540 89.436 C 71.779 89.700,72.044 90.150,72.131 90.435 C 72.217 90.721,72.615 91.369,73.014 91.876 C 73.413 92.382,74.030 93.173,74.385 93.633 C 74.940 94.353,76.357 95.798,78.761 98.097 C 79.096 98.417,79.488 98.679,79.633 98.679 C 79.778 98.679,80.074 98.950,80.290 99.280 C 80.506 99.610,80.826 99.880,81.001 99.880 C 81.175 99.880,81.522 100.106,81.772 100.381 C 82.302 100.967,85.543 103.435,86.472 103.961 C 86.823 104.159,87.903 104.851,88.873 105.498 C 89.843 106.144,91.041 106.928,91.537 107.238 C 92.032 107.549,92.842 108.068,93.337 108.392 C 93.833 108.716,94.635 109.147,95.122 109.349 C 95.608 109.551,96.071 109.823,96.152 109.954 C 96.233 110.084,96.753 110.414,97.309 110.687 C 97.865 110.960,98.821 111.477,99.435 111.834 C 100.048 112.192,101.094 112.780,101.759 113.141 C 102.423 113.501,103.030 113.899,103.108 114.024 C 103.185 114.148,103.652 114.379,104.145 114.535 C 104.638 114.691,105.161 114.967,105.306 115.149 C 105.451 115.330,105.883 115.618,106.266 115.788 C 106.649 115.958,107.584 116.473,108.343 116.932 C 110.199 118.055,112.253 119.195,113.565 119.832 C 114.160 120.120,114.700 120.439,114.767 120.541 C 114.909 120.758,116.686 121.786,117.887 122.345 C 118.349 122.561,118.927 122.915,119.172 123.133 C 119.416 123.351,120.010 123.695,120.492 123.898 C 121.396 124.278,121.716 124.458,124.770 126.291 C 125.760 126.885,126.966 127.579,127.451 127.832 C 127.935 128.086,128.418 128.437,128.523 128.613 C 128.629 128.788,128.827 128.932,128.963 128.932 C 129.193 128.932,129.725 129.257,133.253 131.556 C 134.636 132.457,136.409 133.746,136.615 133.999 C 136.681 134.080,137.081 134.324,137.505 134.541 C 138.296 134.946,138.494 135.111,140.792 137.275 C 141.529 137.968,142.187 138.535,142.254 138.535 C 142.421 138.535,144.298 140.367,144.298 140.530 C 144.298 140.601,144.595 140.974,144.958 141.358 C 146.974 143.493,147.211 143.871,148.967 147.745 C 149.527 148.980,149.428 152.476,148.816 153.088 C 148.296 153.607,141.901 154.378,137.409 154.462 C 134.652 154.514,134.175 154.582,133.722 154.992 L 133.201 155.462 134.127 155.744 C 135.190 156.067,138.750 156.105,143.097 155.840 C 146.946 155.606,147.977 156.219,146.382 157.793 C 146.075 158.096,145.643 158.637,145.421 158.995 C 144.934 159.783,144.742 159.997,141.339 163.534 C 137.494 167.531,137.023 168.279,138.565 167.941 C 139.822 167.665,148.139 158.859,148.139 157.804 C 148.139 157.638,148.245 157.503,148.374 157.503 C 148.504 157.503,148.825 157.081,149.088 156.565 C 149.764 155.240,150.543 154.716,152.107 154.532 C 152.849 154.445,153.828 154.218,154.282 154.028 C 154.736 153.839,155.998 153.562,157.086 153.414 C 158.174 153.265,159.658 152.947,160.384 152.706 C 161.110 152.465,162.353 152.140,163.145 151.983 C 163.938 151.825,165.018 151.499,165.546 151.258 C 166.074 151.016,167.173 150.689,167.987 150.531 C 169.483 150.240,171.346 149.068,171.056 148.600 C 170.810 148.202,168.759 148.358,167.976 148.835 C 167.564 149.086,166.579 149.422,165.786 149.583 C 164.994 149.743,164.076 150.012,163.745 150.181 C 163.415 150.349,162.227 150.666,161.104 150.884 C 159.982 151.103,158.685 151.435,158.223 151.621 C 157.761 151.808,156.014 152.163,154.342 152.410 L 151.300 152.859 151.040 152.289 C 150.897 151.975,150.780 151.123,150.780 150.395 C 150.780 148.214,149.128 143.337,148.388 143.337 C 148.269 143.337,148.101 143.116,148.015 142.845 C 147.929 142.574,147.571 142.039,147.219 141.655 C 146.867 141.271,146.255 140.563,145.858 140.081 C 145.184 139.260,144.274 138.324,142.857 136.992 C 141.989 136.176,138.940 133.706,138.010 133.066 C 136.842 132.261,135.700 131.471,134.223 130.444 C 133.501 129.942,132.732 129.424,132.514 129.292 C 131.981 128.970,130.948 128.288,129.733 127.455 C 129.183 127.079,128.650 126.771,128.548 126.771 C 128.446 126.771,128.139 126.572,127.867 126.329 C 127.594 126.087,126.993 125.741,126.531 125.561 C 126.068 125.381,125.558 125.052,125.396 124.829 C 125.234 124.607,124.802 124.350,124.435 124.258 C 124.069 124.167,123.607 123.948,123.409 123.771 C 122.981 123.388,121.311 122.427,119.808 121.698 C 119.214 121.410,118.619 121.044,118.487 120.885 C 118.355 120.727,117.761 120.410,117.168 120.181 C 116.574 119.952,116.034 119.688,115.967 119.595 C 115.745 119.283,112.518 117.442,110.289 116.356 C 109.609 116.025,109.015 115.667,108.968 115.560 C 108.922 115.453,108.397 115.121,107.803 114.820 C 107.209 114.520,106.182 113.960,105.522 113.575 C 104.862 113.190,103.890 112.649,103.361 112.373 C 102.833 112.098,101.807 111.500,101.080 111.046 C 100.354 110.592,99.278 109.974,98.689 109.672 C 98.100 109.370,97.425 108.935,97.189 108.703 C 96.952 108.472,96.570 108.280,96.339 108.277 C 96.107 108.273,95.494 107.949,94.975 107.556 C 94.457 107.164,93.932 106.843,93.809 106.843 C 93.687 106.843,93.288 106.600,92.922 106.303 C 92.556 106.005,91.947 105.574,91.567 105.343 C 91.187 105.112,90.390 104.603,89.796 104.211 C 89.202 103.819,88.290 103.265,87.770 102.982 C 87.250 102.698,86.675 102.316,86.492 102.133 C 86.310 101.950,86.064 101.801,85.946 101.801 C 85.827 101.801,85.418 101.504,85.035 101.140 C 84.652 100.777,83.775 100.048,83.086 99.520 C 80.359 97.430,79.461 96.650,77.416 94.598 C 74.925 92.099,74.670 91.817,74.670 91.562 C 74.670 91.439,74.350 90.964,73.959 90.507 C 73.569 90.050,73.244 89.578,73.239 89.459 C 73.234 89.340,72.937 88.637,72.579 87.898 C 71.483 85.633,71.590 81.902,72.820 79.472 C 74.219 76.710,74.448 76.437,77.345 74.080 C 77.561 73.903,78.446 73.421,79.311 73.009 C 80.742 72.326,81.470 71.546,81.059 71.135 C 80.821 70.897,76.999 69.697,75.876 69.508 C 75.284 69.409,74.582 69.188,74.315 69.018 C 71.900 67.483,56.893 67.401,53.661 68.906 C 53.133 69.152,52.215 69.480,51.621 69.635 C 51.026 69.789,50.270 70.063,49.940 70.242 C 49.610 70.422,48.833 70.789,48.214 71.058 C 47.595 71.327,47.023 71.653,46.943 71.781 C 46.864 71.910,46.373 72.143,45.852 72.299 C 45.332 72.455,44.725 72.782,44.504 73.026 C 44.284 73.270,43.958 73.469,43.781 73.469 C 43.492 73.469,40.548 74.954,39.274 75.742 C 39.000 75.912,38.235 76.180,37.575 76.339 C 36.915 76.497,36.199 76.786,35.984 76.980 C 34.552 78.271,27.350 78.750,22.743 77.860 C 18.334 77.008,18.365 76.460,23.120 71.068 C 23.411 70.738,23.761 70.279,23.898 70.048 C 24.035 69.817,24.593 69.115,25.138 68.487 C 26.519 66.898,27.843 65.308,28.691 64.219 C 29.528 63.145,30.647 61.801,31.333 61.046 C 31.597 60.756,32.054 60.218,32.349 59.851 C 32.644 59.484,33.269 58.752,33.739 58.223 C 35.122 56.670,35.152 55.126,33.852 52.458 C 32.979 50.666,32.959 50.137,33.726 49.131 C 34.052 48.703,34.486 47.954,34.690 47.466 C 34.894 46.978,35.152 46.579,35.265 46.579 C 35.377 46.579,35.650 46.106,35.870 45.528 C 36.091 44.950,36.484 44.285,36.743 44.050 C 37.003 43.815,37.215 43.478,37.215 43.300 C 37.215 43.123,37.409 42.783,37.645 42.547 C 37.882 42.310,38.226 41.754,38.409 41.312 C 38.592 40.869,38.974 40.257,39.257 39.951 C 40.579 38.526,40.573 36.252,39.243 34.321 C 38.920 33.852,38.655 33.321,38.655 33.141 C 38.655 32.962,38.397 32.374,38.080 31.834 C 37.764 31.294,37.381 30.366,37.229 29.772 C 37.076 29.178,36.750 28.205,36.505 27.611 C 36.259 27.017,35.981 25.990,35.888 25.330 C 35.794 24.670,35.520 23.643,35.278 23.049 C 34.749 21.748,33.840 15.130,33.778 12.125 L 33.733 9.964 34.414 9.886 C 34.788 9.843,35.452 9.978,35.891 10.186 C 36.329 10.394,36.835 10.564,37.015 10.564 C 37.195 10.564,37.727 10.771,38.198 11.023 C 38.669 11.275,39.586 11.646,40.235 11.847 C 41.625 12.277,46.591 14.754,46.939 15.191 C 47.071 15.356,47.486 15.628,47.862 15.794 C 49.232 16.401,56.182 22.602,56.182 23.217 C 56.182 23.338,56.453 23.802,56.783 24.250 C 57.443 25.145,57.562 26.284,57.057 26.872 C 55.656 28.500,55.922 32.529,57.468 33.088 C 60.225 34.085,61.965 31.162,60.384 28.188 C 59.506 26.537,59.552 24.724,60.509 23.313 C 60.902 22.732,61.224 22.125,61.224 21.965 C 61.224 21.805,61.431 21.411,61.682 21.091 C 61.934 20.771,62.355 19.855,62.618 19.054 C 63.491 16.396,64.179 15.445,65.034 15.716 C 65.972 16.014,72.269 22.556,72.269 23.232 C 72.269 23.363,72.426 23.601,72.618 23.761 C 72.811 23.920,73.345 24.825,73.806 25.771 C 74.578 27.356,74.880 28.247,75.649 31.212 C 76.265 33.588,76.476 33.766,79.471 34.441 C 80.461 34.664,81.433 34.983,81.632 35.150 C 81.830 35.316,82.506 35.642,83.133 35.874 C 83.761 36.105,84.274 36.373,84.274 36.470 C 84.274 36.567,84.733 36.904,85.294 37.219 C 87.052 38.206,87.709 38.727,89.316 40.410 C 92.226 43.457,92.970 44.296,93.513 45.138 C 93.811 45.600,94.285 46.184,94.567 46.436 C 94.848 46.687,95.078 47.000,95.078 47.131 C 95.078 47.261,95.306 47.596,95.584 47.874 C 96.137 48.426,98.116 51.004,99.012 52.341 C 99.322 52.803,100.320 53.948,101.229 54.885 C 102.138 55.822,103.053 56.794,103.263 57.046 C 103.911 57.823,105.974 59.586,106.543 59.850 C 106.840 59.988,107.083 60.185,107.083 60.288 C 107.083 60.390,107.623 60.768,108.283 61.128 C 108.944 61.487,109.484 61.862,109.484 61.960 C 109.484 62.059,109.972 62.306,110.568 62.509 C 111.165 62.712,111.818 63.044,112.020 63.246 C 112.221 63.448,112.841 63.732,113.396 63.879 C 113.951 64.025,114.654 64.304,114.957 64.498 C 115.260 64.692,116.311 65.057,117.293 65.308 C 118.275 65.559,119.269 65.864,119.503 65.987 C 119.737 66.110,120.738 66.339,121.729 66.496 C 122.719 66.653,124.137 66.985,124.880 67.234 C 125.623 67.482,127.459 67.808,128.961 67.959 C 130.464 68.109,132.351 68.378,133.155 68.557 C 133.959 68.736,136.822 69.055,139.518 69.265 C 142.213 69.475,144.742 69.756,145.138 69.890 C 147.104 70.556,172.810 70.618,173.875 69.960 C 174.012 69.875,176.030 69.607,178.359 69.363 C 180.688 69.120,183.295 68.760,184.154 68.564 C 185.012 68.369,187.065 68.088,188.715 67.941 C 190.366 67.793,192.581 67.469,193.637 67.220 C 194.694 66.971,196.855 66.652,198.439 66.512 C 200.024 66.372,202.023 66.099,202.881 65.907 C 203.739 65.714,205.954 65.444,207.803 65.307 C 209.652 65.170,212.191 64.957,213.445 64.834 C 221.581 64.035,226.606 63.966,231.453 64.587 C 232.443 64.714,234.928 64.994,236.975 65.209 C 239.022 65.425,241.030 65.738,241.439 65.906 C 241.847 66.073,242.981 66.344,243.960 66.508 C 244.938 66.671,246.121 66.999,246.590 67.236 C 247.058 67.473,247.868 67.744,248.391 67.838 C 249.360 68.013,251.899 68.965,254.262 70.041 C 257.902 71.698,258.761 72.098,259.424 72.446 C 259.820 72.654,260.630 73.078,261.224 73.388 C 261.819 73.698,262.845 74.269,263.505 74.657 C 264.166 75.045,265.138 75.599,265.666 75.889 C 266.194 76.178,266.681 76.496,266.747 76.596 C 266.813 76.695,267.198 76.978,267.602 77.224 C 269.766 78.540,270.561 79.086,273.397 81.210 C 274.409 81.968,275.433 82.650,275.673 82.727 C 275.913 82.803,276.178 83.155,276.263 83.509 C 276.348 83.864,276.517 84.281,276.639 84.437 C 277.096 85.019,275.907 85.299,273.733 85.122 C 272.597 85.029,271.236 84.943,270.708 84.929 C 269.403 84.896,262.056 85.691,260.864 85.995 C 260.336 86.130,258.878 86.456,257.623 86.721 C 256.369 86.985,255.180 87.345,254.982 87.520 C 254.784 87.695,253.870 88.012,252.951 88.225 C 252.032 88.438,251.114 88.760,250.910 88.941 C 250.707 89.123,250.054 89.399,249.460 89.556 C 248.866 89.712,248.217 89.976,248.019 90.141 C 247.821 90.306,247.179 90.628,246.592 90.856 C 246.006 91.083,245.250 91.464,244.912 91.702 C 244.574 91.939,244.028 92.217,243.697 92.318 C 243.367 92.420,242.814 92.731,242.467 93.010 C 242.121 93.289,241.476 93.733,241.035 93.998 C 239.273 95.052,238.770 95.380,238.655 95.552 C 238.589 95.651,238.159 95.925,237.698 96.161 C 237.238 96.397,236.571 96.871,236.217 97.215 C 234.736 98.650,234.429 98.920,234.271 98.920 C 234.137 98.920,232.664 100.366,229.376 103.727 C 227.719 105.421,227.156 106.098,226.746 106.890 C 226.534 107.301,226.155 107.858,225.905 108.126 C 225.655 108.394,225.450 108.752,225.450 108.920 C 225.450 109.089,225.243 109.338,224.990 109.473 C 224.737 109.609,224.353 110.251,224.137 110.901 C 223.921 111.551,223.615 112.133,223.457 112.194 C 223.299 112.255,223.024 112.800,222.846 113.405 C 222.667 114.011,222.380 114.624,222.206 114.768 C 222.033 114.912,221.761 115.592,221.603 116.278 C 221.444 116.965,221.152 117.785,220.954 118.101 C 220.531 118.774,219.270 124.745,219.074 127.006 C 218.853 129.545,218.864 129.525,217.321 130.217 C 216.543 130.567,215.785 130.852,215.637 130.852 C 215.489 130.852,214.692 131.166,213.866 131.550 C 213.041 131.934,211.988 132.326,211.528 132.422 C 211.068 132.518,210.465 132.744,210.189 132.925 C 209.912 133.107,209.100 133.425,208.384 133.632 C 207.668 133.840,206.644 134.218,206.107 134.472 C 205.570 134.726,204.990 134.934,204.819 134.934 C 204.647 134.934,204.006 135.196,203.394 135.516 C 202.782 135.836,201.849 136.226,201.321 136.383 C 200.792 136.540,200.144 136.802,199.880 136.965 C 199.616 137.128,198.968 137.398,198.439 137.565 C 197.911 137.732,197.047 138.059,196.519 138.292 C 194.798 139.052,191.971 140.177,191.357 140.346 C 191.026 140.437,190.432 140.700,190.036 140.931 C 189.640 141.163,188.803 141.476,188.175 141.628 C 187.548 141.779,186.684 142.118,186.255 142.379 C 185.825 142.641,185.274 142.856,185.029 142.856 C 184.784 142.857,184.040 143.130,183.376 143.464 C 182.712 143.797,181.672 144.181,181.064 144.317 C 180.457 144.454,179.796 144.706,179.596 144.879 C 179.396 145.052,178.475 145.426,177.551 145.710 C 174.251 146.725,172.684 147.901,174.373 148.095 C 175.164 148.186,177.671 147.497,177.671 147.189 C 177.671 147.070,178.292 146.844,179.052 146.687 C 179.811 146.530,180.810 146.204,181.273 145.962 C 181.735 145.721,182.599 145.362,183.193 145.166 C 185.812 144.300,187.795 143.539,188.526 143.118 C 188.960 142.868,189.694 142.586,190.156 142.490 C 190.618 142.395,191.375 142.125,191.837 141.891 C 192.864 141.370,194.878 140.551,196.613 139.948 C 197.325 139.700,198.036 139.392,198.192 139.262 C 198.349 139.132,199.193 138.804,200.068 138.534 C 200.944 138.263,201.721 137.944,201.795 137.824 C 201.869 137.705,202.537 137.430,203.279 137.214 C 204.022 136.998,204.857 136.676,205.136 136.498 C 205.414 136.319,206.128 136.047,206.723 135.892 C 207.317 135.736,207.970 135.461,208.173 135.280 C 208.377 135.099,209.124 134.826,209.835 134.673 C 210.546 134.521,211.611 134.139,212.202 133.825 C 212.793 133.510,213.434 133.253,213.626 133.253 C 213.819 133.253,214.523 132.979,215.191 132.643 C 215.859 132.307,216.861 131.970,217.418 131.894 C 219.134 131.659,219.394 132.143,220.120 136.922 C 220.256 137.818,220.586 138.970,220.853 139.482 C 221.120 139.995,221.411 140.829,221.500 141.335 C 221.643 142.154,222.697 144.534,223.662 146.218 C 223.851 146.549,224.167 147.197,224.364 147.659 C 224.562 148.121,225.103 148.986,225.567 149.580 C 226.031 150.174,226.593 151.011,226.815 151.441 C 227.038 151.870,227.306 152.221,227.411 152.221 C 227.515 152.221,227.819 152.648,228.085 153.169 C 228.351 153.690,228.812 154.371,229.110 154.681 C 229.408 154.991,230.516 156.199,231.573 157.365 C 234.916 161.055,235.197 161.345,235.435 161.345 C 235.563 161.345,235.936 161.642,236.264 162.005 C 237.123 162.955,240.760 166.237,241.116 166.383 C 241.281 166.451,241.873 166.816,242.431 167.195 C 243.700 168.056,244.272 167.930,243.904 166.873 C 243.762 166.468,243.415 166.013,243.132 165.862 C 242.517 165.535,241.178 164.462,239.742 163.145 C 239.166 162.617,238.100 161.699,237.374 161.104 C 236.647 160.510,235.918 159.781,235.753 159.484 C 235.588 159.187,235.322 158.944,235.161 158.944 C 235.001 158.944,234.705 158.700,234.504 158.403 C 234.303 158.106,233.591 157.269,232.922 156.543 C 230.961 154.415,230.872 154.314,229.941 153.157 C 229.452 152.549,229.052 151.969,229.052 151.868 C 229.052 151.767,228.729 151.292,228.335 150.812 C 227.942 150.332,227.482 149.772,227.315 149.567 C 226.858 149.008,225.986 147.460,225.293 145.978 C 224.953 145.252,224.539 144.496,224.373 144.298 C 224.206 144.100,223.932 143.508,223.764 142.984 C 223.595 142.459,223.319 141.892,223.150 141.723 C 222.981 141.554,222.717 140.795,222.562 140.036 C 222.408 139.277,222.134 138.331,221.953 137.935 C 221.199 136.278,220.634 131.568,221.120 130.983 C 221.536 130.482,223.226 129.715,224.572 129.417 C 225.211 129.276,226.104 129.005,226.556 128.817 C 227.008 128.628,228.267 128.235,229.355 127.943 C 230.443 127.652,231.549 127.279,231.813 127.114 C 232.077 126.949,232.941 126.685,233.733 126.526 C 234.526 126.367,235.368 126.134,235.605 126.009 C 235.842 125.884,237.192 125.567,238.606 125.304 C 240.020 125.041,241.501 124.681,241.897 124.504 C 244.533 123.325,259.660 123.332,262.054 124.512 C 262.444 124.705,263.417 125.032,264.215 125.238 C 265.013 125.445,265.936 125.763,266.267 125.945 C 266.597 126.127,267.245 126.445,267.707 126.652 C 268.811 127.146,270.651 128.238,271.144 128.691 C 271.359 128.890,271.975 129.376,272.513 129.772 C 276.329 132.584,276.896 133.772,275.266 135.534 C 274.066 136.832,273.795 137.340,273.017 139.753 C 272.223 142.218,273.004 148.776,274.270 150.283 C 274.445 150.491,274.720 151.125,274.882 151.693 C 275.044 152.261,275.441 153.223,275.764 153.830 C 276.086 154.437,276.351 155.090,276.351 155.281 C 276.351 155.472,276.514 155.915,276.713 156.265 C 277.195 157.114,278.227 160.549,278.671 162.785 C 278.868 163.776,279.231 165.234,279.477 166.026 C 279.723 166.819,279.993 168.277,280.076 169.268 C 280.364 172.711,280.922 177.733,281.038 177.920 C 281.276 178.306,281.185 192.221,280.936 193.397 C 280.796 194.058,280.518 196.243,280.317 198.255 C 280.117 200.266,279.790 202.373,279.591 202.937 C 279.392 203.500,279.067 204.869,278.869 205.979 C 278.672 207.088,278.409 208.117,278.286 208.265 C 278.164 208.413,277.850 209.303,277.589 210.244 C 277.329 211.184,276.954 212.208,276.757 212.519 C 276.559 212.831,276.327 213.425,276.240 213.841 C 276.154 214.256,275.877 214.782,275.626 215.010 C 275.374 215.238,275.040 215.816,274.883 216.296 C 274.726 216.775,274.208 217.652,273.733 218.245 C 273.258 218.838,272.761 219.469,272.629 219.647 C 272.000 220.497,269.975 222.407,269.150 222.928 C 268.643 223.248,268.163 223.614,268.085 223.741 C 268.006 223.869,267.376 224.160,266.684 224.388 C 265.992 224.617,265.210 224.944,264.946 225.115 C 263.977 225.742,247.462 226.193,246.341 225.623 C 245.274 225.080,245.397 224.598,247.026 222.940 C 248.124 221.822,248.365 221.651,249.102 221.472 C 249.497 221.375,250.360 221.052,251.020 220.753 C 251.681 220.455,252.653 220.135,253.181 220.043 C 253.709 219.951,254.559 219.594,255.069 219.250 C 255.579 218.906,256.185 218.513,256.415 218.376 C 258.524 217.124,262.665 213.297,262.665 212.601 C 262.665 212.451,262.935 212.075,263.265 211.765 C 263.595 211.455,263.866 211.071,263.866 210.912 C 263.866 210.753,264.038 210.480,264.248 210.305 C 264.459 210.131,264.871 209.496,265.163 208.895 C 265.456 208.295,265.820 207.587,265.972 207.323 C 266.576 206.271,267.699 203.385,267.939 202.266 C 268.079 201.614,268.348 200.702,268.537 200.240 C 270.243 196.056,269.380 186.273,267.104 183.996 C 266.907 183.800,266.747 183.542,266.747 183.424 C 266.747 182.298,261.365 177.700,259.604 177.321 C 258.619 177.109,258.394 178.230,259.364 178.522 C 260.033 178.723,260.332 178.978,263.029 181.650 C 266.345 184.934,267.465 186.977,267.959 190.636 C 268.218 192.559,267.996 196.828,267.602 197.479 C 267.443 197.743,267.174 198.770,267.005 199.760 C 266.836 200.750,266.493 202.034,266.242 202.612 C 265.991 203.190,265.786 203.765,265.786 203.891 C 265.786 204.108,264.261 207.506,263.911 208.070 C 263.735 208.353,263.344 208.945,261.965 211.016 C 261.122 212.282,257.229 216.327,256.853 216.327 C 256.748 216.327,256.472 216.516,256.239 216.747 C 255.750 217.232,252.322 218.841,251.264 219.082 C 250.870 219.172,249.976 219.507,249.276 219.827 C 248.577 220.146,247.906 220.408,247.784 220.408 C 247.663 220.408,247.261 220.677,246.891 221.005 C 245.209 222.498,244.464 223.425,244.072 224.515 C 243.839 225.161,243.552 225.690,243.433 225.690 C 243.067 225.690,243.195 226.619,243.631 227.128 C 244.291 227.899,259.791 227.535,264.915 226.628 C 268.332 226.024,272.308 223.090,274.638 219.454 C 274.851 219.121,275.116 218.739,275.226 218.607 C 276.029 217.644,278.406 212.882,278.638 211.774 C 278.734 211.317,279.018 210.548,279.270 210.064 C 279.522 209.580,279.838 208.507,279.971 207.680 C 280.104 206.853,280.378 205.786,280.579 205.309 C 280.779 204.832,281.093 203.175,281.276 201.627 C 281.459 200.079,281.733 198.581,281.884 198.298 C 282.782 196.620,282.801 173.644,281.906 171.972 C 281.754 171.688,281.468 169.916,281.269 168.035 C 281.071 166.154,280.763 164.393,280.585 164.120 C 280.407 163.848,280.183 162.993,280.086 162.221 C 279.990 161.448,279.698 160.205,279.437 159.459 C 279.177 158.714,278.762 157.476,278.515 156.709 C 278.269 155.942,277.964 155.185,277.838 155.028 C 277.712 154.871,277.424 154.094,277.197 153.301 C 276.971 152.509,276.696 151.752,276.588 151.620 C 276.479 151.488,276.160 150.785,275.879 150.059 C 275.598 149.333,275.222 148.415,275.043 148.019 C 273.274 144.104,274.445 137.624,277.255 135.774 C 278.331 135.067,278.750 134.240,278.419 133.482 C 278.152 132.873,273.948 128.451,273.635 128.451 C 273.457 128.451,271.250 126.939,270.468 126.281 C 270.204 126.059,269.617 125.752,269.163 125.600 C 268.710 125.448,268.153 125.157,267.927 124.952 C 267.700 124.747,266.991 124.434,266.351 124.256 C 265.710 124.079,264.646 123.717,263.986 123.452 C 260.449 122.034,249.931 121.201,248.049 122.189 C 247.835 122.302,246.414 122.514,244.893 122.661 C 243.372 122.807,241.535 123.095,240.812 123.299 C 238.977 123.817,236.251 124.369,235.531 124.369 C 235.199 124.370,234.549 124.572,234.087 124.820 C 233.625 125.068,232.600 125.404,231.809 125.568 C 231.019 125.732,229.832 126.058,229.172 126.293 C 228.511 126.527,227.539 126.847,227.011 127.005 C 226.483 127.162,225.726 127.435,225.330 127.611 C 223.581 128.390,221.590 128.601,221.148 128.055 C 220.627 127.411,221.077 122.324,221.824 120.408 C 222.082 119.748,222.412 118.618,222.559 117.897 C 222.706 117.176,222.981 116.414,223.171 116.204 C 223.361 115.994,223.685 115.347,223.890 114.766 C 224.095 114.185,224.404 113.542,224.577 113.337 C 224.749 113.133,225.036 112.587,225.214 112.125 C 225.392 111.663,225.761 110.995,226.034 110.641 C 226.307 110.287,226.775 109.638,227.074 109.200 C 229.902 105.050,234.160 100.647,238.175 97.720 C 238.902 97.191,239.614 96.661,239.758 96.543 C 239.903 96.426,240.389 96.141,240.839 95.910 C 241.289 95.679,241.962 95.236,242.335 94.924 C 242.709 94.613,243.134 94.358,243.280 94.358 C 243.427 94.358,243.770 94.159,244.042 93.916 C 244.315 93.674,244.916 93.330,245.378 93.152 C 245.840 92.975,246.476 92.633,246.791 92.393 C 247.106 92.153,247.484 91.956,247.631 91.956 C 247.779 91.955,248.547 91.632,249.340 91.236 C 250.132 90.841,250.913 90.518,251.076 90.517 C 251.238 90.517,252.102 90.235,252.996 89.892 C 253.890 89.549,255.191 89.051,255.888 88.786 C 256.584 88.522,258.258 88.109,259.609 87.870 C 260.960 87.631,262.497 87.274,263.025 87.079 C 264.331 86.594,273.311 86.318,277.349 86.639 C 280.927 86.923,281.314 87.127,284.021 90.159 C 284.921 91.167,285.872 92.142,286.133 92.325 C 286.395 92.508,286.742 92.981,286.906 93.376 C 287.070 93.771,287.463 94.264,287.779 94.472 C 288.096 94.679,288.355 94.969,288.355 95.116 C 288.355 95.263,288.598 95.635,288.896 95.942 C 289.879 96.959,291.966 99.714,292.447 100.630 C 292.612 100.944,292.893 101.287,293.072 101.392 C 293.251 101.498,293.397 101.697,293.397 101.833 C 293.397 101.970,293.704 102.532,294.079 103.082 C 294.454 103.632,295.164 104.784,295.656 105.642 C 296.147 106.501,296.652 107.365,296.776 107.563 C 296.900 107.761,297.186 108.301,297.410 108.764 C 297.635 109.226,297.999 109.820,298.220 110.084 C 298.440 110.348,298.757 110.996,298.923 111.525 C 299.090 112.053,299.416 112.756,299.648 113.087 C 299.880 113.419,300.190 114.135,300.337 114.680 C 300.484 115.225,300.753 115.794,300.935 115.946 C 301.118 116.097,301.387 116.698,301.534 117.280 C 301.681 117.863,302.005 118.697,302.255 119.134 C 302.504 119.571,302.842 120.360,303.006 120.888 C 303.170 121.417,303.406 121.978,303.531 122.136 C 303.756 122.419,304.491 124.318,305.464 127.128 C 305.738 127.918,306.089 128.693,306.245 128.849 C 306.402 129.005,306.670 129.655,306.843 130.293 C 307.015 130.931,307.289 131.615,307.451 131.813 C 307.718 132.139,308.114 133.153,309.503 137.069 C 309.755 137.781,310.071 138.495,310.204 138.656 C 310.338 138.816,310.648 139.530,310.893 140.242 C 311.138 140.954,311.777 142.455,312.312 143.577 C 312.848 144.700,313.418 146.050,313.580 146.579 C 313.743 147.107,314.068 147.787,314.304 148.091 C 314.540 148.394,314.806 148.988,314.896 149.411 C 314.986 149.834,315.198 150.342,315.367 150.540 C 315.856 151.113,317.647 154.759,317.647 155.181 C 317.647 155.391,317.844 155.757,318.086 155.993 C 318.327 156.229,318.669 156.801,318.845 157.263 C 319.022 157.725,319.302 158.265,319.467 158.463 C 319.632 158.661,319.944 159.266,320.159 159.807 C 320.563 160.820,321.798 161.959,322.214 161.702 C 322.596 161.466,322.483 160.493,322.003 159.876 C 321.758 159.561,321.332 158.818,321.057 158.223 C 320.782 157.629,320.392 156.873,320.190 156.543 C 319.988 156.212,319.444 155.120,318.980 154.115 C 318.517 153.110,317.983 152.160,317.796 152.004 C 317.608 151.849,317.382 151.432,317.293 151.079 C 317.146 150.495,316.857 149.831,315.123 146.098 C 314.816 145.438,314.488 144.628,314.394 144.298 C 314.300 143.968,314.035 143.427,313.806 143.097 C 313.576 142.767,313.316 142.227,313.227 141.897 C 313.138 141.567,312.803 140.756,312.484 140.096 C 311.400 137.858,310.684 136.165,310.684 135.843 C 310.684 135.666,310.364 134.876,309.972 134.088 C 309.580 133.299,309.255 132.501,309.251 132.316 C 309.247 132.131,308.920 131.293,308.523 130.455 C 308.127 129.616,307.803 128.794,307.803 128.627 C 307.803 128.461,307.597 127.940,307.345 127.470 C 307.094 127.000,306.751 126.138,306.584 125.553 C 306.416 124.968,306.136 124.319,305.960 124.110 C 305.784 123.900,305.470 123.144,305.262 122.429 C 305.053 121.714,304.622 120.568,304.302 119.883 C 303.983 119.198,303.721 118.495,303.720 118.322 C 303.719 118.149,303.502 117.683,303.237 117.287 C 302.973 116.891,302.639 116.138,302.496 115.615 C 302.352 115.091,302.029 114.401,301.778 114.082 C 301.526 113.762,301.321 113.392,301.321 113.259 C 301.321 112.960,299.399 109.075,298.445 107.443 C 298.059 106.783,297.518 105.788,297.244 105.232 C 296.970 104.676,296.628 104.149,296.485 104.061 C 296.341 103.972,296.015 103.427,295.760 102.850 C 295.505 102.273,295.203 101.801,295.090 101.801 C 294.977 101.801,294.771 101.475,294.633 101.077 C 294.494 100.679,294.213 100.290,294.009 100.211 C 293.804 100.133,293.437 99.621,293.192 99.074 C 292.947 98.527,292.515 97.873,292.232 97.622 C 291.948 97.370,291.717 97.059,291.717 96.929 C 291.717 96.800,291.474 96.450,291.176 96.151 C 290.879 95.853,290.258 95.093,289.796 94.462 C 289.334 93.832,288.387 92.713,287.692 91.976 C 286.626 90.845,285.674 89.015,285.999 88.718 C 286.153 88.576,289.329 89.509,289.853 89.850 C 290.152 90.044,290.828 90.341,291.357 90.510 C 291.885 90.679,292.486 90.964,292.693 91.144 C 292.899 91.324,293.440 91.597,293.893 91.752 C 294.347 91.907,295.001 92.259,295.348 92.535 C 295.938 93.005,296.714 93.501,298.200 94.358 C 298.544 94.556,299.035 94.909,299.292 95.142 C 299.549 95.375,300.678 96.347,301.801 97.301 C 302.923 98.255,303.896 99.106,303.962 99.194 C 304.028 99.281,305.014 100.362,306.154 101.597 C 307.294 102.831,308.892 104.652,309.705 105.642 C 310.518 106.633,311.476 107.774,311.834 108.179 C 312.192 108.583,312.647 109.163,312.845 109.468 C 313.043 109.772,313.529 110.457,313.926 110.991 C 314.322 111.524,314.808 112.202,315.006 112.497 C 315.684 113.506,317.880 116.566,318.304 117.092 C 318.537 117.381,318.998 118.008,319.328 118.486 C 319.658 118.963,320.333 119.859,320.828 120.477 C 321.324 121.094,321.729 121.733,321.729 121.896 C 321.729 122.059,321.945 122.308,322.209 122.449 C 322.473 122.590,322.689 122.840,322.689 123.004 C 322.689 123.280,324.183 125.466,324.935 126.291 C 325.116 126.489,325.402 126.921,325.572 127.251 C 325.742 127.581,326.027 127.938,326.207 128.044 C 326.387 128.150,326.738 128.636,326.987 129.125 C 327.236 129.613,327.667 130.218,327.946 130.469 C 328.224 130.721,328.451 131.034,328.451 131.164 C 328.451 131.295,328.675 131.630,328.949 131.908 C 329.223 132.186,330.171 133.331,331.056 134.454 C 333.416 137.447,333.552 137.610,334.274 138.320 C 334.637 138.676,334.934 139.036,334.934 139.119 C 334.934 139.402,339.954 144.542,341.517 145.858 C 341.987 146.255,343.202 147.369,344.217 148.335 C 345.231 149.301,346.394 150.261,346.800 150.469 C 347.207 150.677,347.755 151.055,348.019 151.308 C 348.574 151.840,350.122 153.034,351.384 153.902 C 352.342 154.560,354.265 156.084,354.915 156.700 C 355.142 156.915,355.531 157.211,355.781 157.357 C 356.626 157.853,358.340 159.012,359.064 159.577 C 360.449 160.659,360.756 160.878,362.347 161.912 C 363.228 162.486,364.127 163.133,364.345 163.350 C 364.717 163.722,366.387 163.922,366.387 163.594 C 366.387 163.113,365.316 161.837,364.698 161.581 C 364.300 161.416,363.896 161.148,363.800 160.984 C 363.704 160.821,363.193 160.451,362.665 160.163 C 361.535 159.547,358.840 157.739,357.983 157.022 C 357.653 156.746,357.035 156.282,356.609 155.991 C 353.503 153.870,350.833 151.835,349.295 150.415 C 348.940 150.088,348.575 149.820,348.484 149.820 C 348.301 149.820,346.951 148.728,345.516 147.419 C 343.289 145.388,340.354 142.669,339.540 141.882 C 338.672 141.042,333.999 135.759,332.726 134.177 C 330.271 131.126,328.932 129.308,328.932 129.026 C 328.932 128.905,328.712 128.670,328.443 128.502 C 328.174 128.334,327.849 127.957,327.721 127.664 C 327.594 127.371,327.111 126.645,326.648 126.050 C 326.185 125.456,325.599 124.646,325.345 124.250 C 324.642 123.153,323.822 121.996,323.289 121.348 C 323.025 121.027,322.431 120.208,321.969 119.528 C 321.507 118.848,320.885 118.034,320.588 117.719 C 320.291 117.403,320.048 117.046,320.048 116.924 C 320.048 116.803,319.747 116.348,319.378 115.915 C 319.010 115.481,318.580 114.829,318.423 114.466 C 318.266 114.103,318.030 113.806,317.898 113.806 C 317.767 113.806,317.481 113.461,317.264 113.041 C 317.046 112.620,316.341 111.597,315.697 110.767 C 315.053 109.937,314.526 109.188,314.526 109.102 C 314.526 109.017,314.204 108.555,313.810 108.075 C 313.416 107.595,312.957 107.036,312.789 106.831 C 312.622 106.627,312.107 106.017,311.645 105.475 C 311.182 104.934,310.426 104.032,309.964 103.471 C 309.061 102.375,306.961 100.115,305.400 98.559 C 303.199 96.366,298.450 92.437,298.000 92.437 C 297.875 92.437,297.223 92.059,296.551 91.597 C 295.879 91.134,295.253 90.756,295.159 90.756 C 295.066 90.756,294.766 90.556,294.493 90.312 C 294.221 90.068,293.486 89.730,292.862 89.562 C 292.237 89.394,291.602 89.106,291.450 88.923 C 291.298 88.740,290.567 88.414,289.825 88.199 C 289.083 87.983,288.245 87.656,287.964 87.472 C 287.683 87.288,286.768 87.027,285.931 86.892 C 285.093 86.758,284.081 86.501,283.681 86.322 C 283.281 86.142,282.547 85.870,282.051 85.716 C 281.555 85.562,281.038 85.228,280.902 84.975 C 280.766 84.721,280.492 84.514,280.293 84.514 C 280.093 84.514,279.686 84.270,279.387 83.971 C 279.089 83.673,278.257 82.968,277.538 82.406 C 276.819 81.844,275.960 81.162,275.630 80.892 C 274.262 79.769,272.856 78.756,272.664 78.754 C 272.551 78.753,272.153 78.508,271.780 78.211 C 270.222 76.970,264.849 73.469,264.503 73.469 C 264.367 73.469,264.034 73.271,263.761 73.028 C 263.488 72.785,262.887 72.438,262.425 72.256 C 261.963 72.075,261.218 71.679,260.771 71.377 C 260.323 71.075,259.825 70.828,259.663 70.828 C 259.501 70.828,259.109 70.624,258.792 70.375 C 258.475 70.126,257.799 69.807,257.291 69.666 C 256.782 69.526,256.189 69.257,255.974 69.070 C 255.759 68.883,254.988 68.539,254.262 68.306 C 253.535 68.074,252.808 67.778,252.644 67.649 C 252.481 67.520,251.599 67.217,250.685 66.977 C 249.770 66.737,248.715 66.383,248.340 66.191 C 247.966 65.998,247.011 65.708,246.218 65.546 C 245.426 65.384,244.474 65.095,244.103 64.905 C 243.732 64.714,242.219 64.401,240.742 64.208 C 239.264 64.015,237.731 63.755,237.335 63.629 C 233.845 62.524,215.448 62.520,210.324 63.623 C 209.730 63.751,207.137 64.024,204.562 64.229 C 201.987 64.434,199.448 64.753,198.920 64.938 C 198.391 65.123,196.555 65.397,194.838 65.547 C 193.121 65.697,191.068 65.967,190.276 66.148 C 189.484 66.329,187.809 66.594,186.555 66.737 C 182.449 67.205,180.901 67.438,180.250 67.685 C 179.898 67.819,177.364 68.098,174.619 68.305 C 171.874 68.512,168.764 68.770,167.707 68.878 C 165.127 69.141,158.684 69.071,152.821 68.715 C 150.180 68.555,145.966 68.308,143.457 68.168 C 140.948 68.027,138.247 67.767,137.455 67.589 C 136.663 67.412,134.566 67.139,132.796 66.984 C 131.026 66.829,129.082 66.548,128.475 66.359 C 127.868 66.171,126.259 65.857,124.900 65.660 C 123.541 65.464,122.190 65.153,121.899 64.968 C 121.607 64.784,120.558 64.502,119.568 64.342 C 118.577 64.182,117.288 63.836,116.703 63.573 C 116.118 63.309,115.118 62.939,114.482 62.750 C 113.846 62.561,113.325 62.311,113.325 62.195 C 113.325 62.079,112.785 61.804,112.125 61.585 C 111.465 61.365,110.924 61.081,110.924 60.953 C 110.924 60.825,110.535 60.557,110.060 60.359 C 107.578 59.322,98.439 50.282,98.439 48.863 C 98.439 48.676,98.258 48.422,98.037 48.298 C 97.816 48.174,97.357 47.692,97.017 47.227 C 96.677 46.762,95.750 45.548,94.958 44.530 C 94.166 43.512,93.355 42.452,93.157 42.175 C 92.607 41.405,89.137 37.933,88.347 37.361 C 85.870 35.568,84.724 34.814,84.478 34.814 C 84.323 34.814,83.754 34.560,83.214 34.249 C 82.675 33.938,81.743 33.565,81.144 33.418 C 79.434 33.001,77.363 31.999,77.228 31.524 C 77.161 31.287,77.034 30.525,76.946 29.832 C 76.858 29.139,76.696 28.516,76.586 28.448 C 76.476 28.380,76.259 27.921,76.103 27.428 C 75.747 26.295,74.160 22.977,73.882 22.784 C 73.767 22.704,73.438 22.253,73.151 21.782 C 72.864 21.312,71.797 20.027,70.779 18.927 C 68.350 16.300,68.569 16.509,66.507 14.857 C 65.516 14.063,64.475 13.205,64.192 12.950 C 63.282 12.127,62.425 13.038,62.425 14.830 C 62.425 15.204,62.327 15.613,62.207 15.738 C 62.088 15.864,61.760 16.745,61.480 17.697 C 61.199 18.649,60.873 19.488,60.755 19.562 C 60.636 19.635,60.410 20.098,60.253 20.592 C 59.611 22.599,58.010 23.418,57.248 22.128 C 56.836 21.431,53.485 18.126,52.095 17.047 C 51.670 16.717,50.954 16.095,50.503 15.666 C 50.053 15.237,49.534 14.886,49.350 14.886 C 49.167 14.886,48.695 14.616,48.303 14.286 C 47.911 13.956,47.479 13.685,47.343 13.685 C 47.207 13.685,46.790 13.434,46.417 13.127 C 46.044 12.820,45.291 12.393,44.744 12.179 C 44.197 11.965,43.387 11.568,42.943 11.298 C 42.500 11.027,41.973 10.806,41.773 10.805 C 41.573 10.805,41.012 10.591,40.526 10.331 C 40.041 10.071,39.124 9.731,38.489 9.577 C 37.854 9.422,37.173 9.159,36.975 8.991 C 36.777 8.824,36.020 8.524,35.294 8.326 C 32.845 7.657,32.705 7.648,32.366 8.132 M59.030 29.545 C 59.896 30.073,59.737 30.595,58.506 31.254 C 57.696 31.687,56.975 30.036,57.671 29.340 C 58.048 28.963,58.084 28.969,59.030 29.545 M89.573 135.354 C 89.583 135.453,89.798 135.858,90.051 136.255 C 90.304 136.651,90.694 137.326,90.918 137.755 C 91.142 138.184,91.407 138.535,91.507 138.535 C 91.667 138.535,95.847 141.730,97.479 143.099 C 98.079 143.602,99.227 144.325,100.878 145.239 C 101.361 145.507,101.793 145.809,101.839 145.912 C 101.884 146.015,102.299 146.291,102.761 146.526 C 103.223 146.761,104.012 147.301,104.513 147.726 L 105.426 148.499 105.510 159.783 L 105.594 171.067 104.229 172.388 C 103.479 173.115,101.788 174.726,100.472 175.968 C 98.276 178.042,96.840 179.588,95.480 181.346 C 95.193 181.717,94.680 182.365,94.341 182.787 C 94.002 183.208,93.578 183.932,93.398 184.394 C 93.219 184.856,92.929 185.447,92.754 185.708 C 92.199 186.537,92.360 189.370,93.043 190.756 C 93.367 191.417,93.634 192.065,93.636 192.197 C 93.637 192.329,93.908 192.751,94.238 193.135 C 94.568 193.518,94.838 193.908,94.838 194.001 C 94.838 194.203,97.921 197.359,98.118 197.359 C 98.194 197.359,98.617 197.656,99.059 198.019 C 100.582 199.271,101.290 199.770,101.964 200.068 C 103.354 200.680,104.677 201.698,104.819 202.263 C 105.002 202.991,104.130 206.508,103.515 207.525 C 103.262 207.942,102.979 208.553,102.885 208.884 C 102.790 209.214,102.454 209.889,102.137 210.384 C 101.820 210.879,101.266 211.744,100.907 212.305 C 100.347 213.180,97.700 215.940,96.497 216.904 C 95.974 217.323,92.910 218.774,90.914 219.546 C 89.669 220.028,88.545 220.238,86.272 220.411 C 84.623 220.537,82.391 220.797,81.312 220.988 C 80.234 221.179,78.844 221.403,78.223 221.485 C 76.328 221.736,72.269 224.258,72.269 225.185 C 72.269 225.320,72.062 225.625,71.810 225.861 C 70.346 227.230,69.473 230.714,70.440 231.324 C 71.870 232.225,96.540 232.251,98.514 231.353 C 98.935 231.162,99.944 230.840,100.756 230.640 C 101.568 230.439,102.595 230.054,103.037 229.784 C 103.480 229.514,103.989 229.293,104.169 229.293 C 104.349 229.292,104.835 229.017,105.249 228.680 C 105.663 228.344,106.597 227.584,107.323 226.991 C 108.049 226.398,109.157 225.296,109.785 224.541 C 110.412 223.787,111.067 223.007,111.239 222.809 C 111.864 222.089,113.055 220.032,113.210 219.405 C 113.297 219.052,113.571 218.580,113.818 218.356 C 114.065 218.132,114.389 217.557,114.537 217.078 C 114.686 216.599,115.008 215.666,115.253 215.006 C 115.700 213.803,116.751 209.040,117.041 206.906 C 117.213 205.638,117.661 205.042,118.445 205.041 C 120.095 205.038,126.267 203.603,127.122 203.023 C 127.626 202.681,128.177 202.401,128.348 202.401 C 128.518 202.401,128.805 202.253,128.986 202.072 C 129.167 201.891,129.634 201.575,130.024 201.370 C 132.190 200.232,134.214 196.823,134.214 194.312 C 134.214 190.060,128.864 186.813,121.835 186.800 C 117.155 186.791,117.090 187.911,121.757 188.129 C 123.468 188.210,125.029 188.430,125.930 188.720 C 126.723 188.974,127.830 189.297,128.391 189.438 C 128.953 189.579,129.412 189.785,129.412 189.896 C 129.412 190.007,129.711 190.222,130.077 190.373 C 131.467 190.949,132.605 192.885,132.566 194.605 C 132.515 196.788,130.844 199.191,128.454 200.516 C 127.990 200.773,127.341 201.139,127.011 201.328 C 125.055 202.450,123.095 202.944,119.507 203.219 C 117.356 203.384,117.269 203.238,117.077 199.160 C 116.863 194.633,115.840 191.147,114.978 192.009 C 114.775 192.211,114.808 193.129,115.107 195.600 C 115.908 202.215,115.903 202.374,114.896 202.833 C 114.150 203.173,112.324 202.875,109.638 201.975 C 107.441 201.240,106.954 200.719,107.173 199.341 C 107.626 196.485,107.783 194.839,107.793 192.841 C 107.801 190.949,107.988 189.968,108.435 189.456 C 108.483 189.401,109.505 189.235,110.705 189.085 C 113.056 188.793,113.806 189.118,113.806 190.429 C 113.806 191.504,114.845 190.770,115.116 189.504 C 115.206 189.079,115.543 188.345,115.864 187.872 C 116.184 187.400,116.447 186.905,116.447 186.772 C 116.447 186.639,116.616 186.202,116.824 185.801 C 117.359 184.766,117.065 184.060,116.426 184.844 C 115.448 186.043,114.064 185.850,112.952 184.360 C 111.827 182.852,110.235 181.895,109.221 182.118 C 108.076 182.369,107.874 181.699,107.645 176.896 C 107.380 171.315,107.290 171.610,110.074 168.962 C 116.275 163.064,120.506 158.705,121.234 157.464 C 121.440 157.113,122.025 156.371,122.534 155.815 L 123.460 154.804 125.325 154.967 C 127.576 155.163,129.228 154.171,127.311 153.774 C 124.669 153.227,124.632 153.168,125.175 150.349 C 125.627 147.998,125.458 145.736,124.750 144.654 C 124.179 143.783,122.244 141.901,121.661 141.650 C 121.368 141.524,120.858 141.206,120.528 140.943 C 118.027 138.953,109.592 139.845,108.559 142.210 C 108.513 142.316,108.217 142.642,107.901 142.934 C 107.586 143.227,107.083 143.951,106.785 144.542 C 106.102 145.896,104.962 146.142,103.815 145.184 C 103.433 144.866,102.743 144.413,102.281 144.178 C 101.819 143.943,101.387 143.673,101.321 143.577 C 101.255 143.482,100.876 143.223,100.480 143.000 C 99.572 142.492,98.258 141.589,97.479 140.939 C 93.346 137.493,91.322 135.894,91.093 135.894 C 90.940 135.894,90.681 135.732,90.516 135.534 C 90.208 135.162,89.542 135.035,89.573 135.354 M119.523 142.144 C 120.357 142.566,121.295 143.141,121.607 143.424 C 121.919 143.706,122.292 144.046,122.436 144.178 C 124.144 145.741,124.512 148.756,123.270 151.020 L 122.545 152.341 121.195 152.296 C 120.453 152.271,119.324 152.032,118.686 151.766 C 118.049 151.500,116.924 151.113,116.187 150.906 C 115.450 150.699,114.427 150.316,113.915 150.055 C 113.403 149.794,112.815 149.580,112.608 149.580 C 112.401 149.580,112.009 149.424,111.738 149.234 C 111.466 149.043,110.673 148.671,109.976 148.406 C 106.200 146.971,107.795 143.333,113.085 141.318 C 114.197 140.895,118.022 141.385,119.523 142.144 M110.769 150.640 C 111.146 150.729,111.733 150.986,112.074 151.211 C 112.797 151.689,115.010 152.483,117.884 153.294 C 121.430 154.296,121.479 155.368,118.133 158.781 C 108.325 168.787,108.401 168.724,107.330 167.686 C 106.853 167.224,106.692 151.474,107.155 150.545 C 107.553 149.748,108.466 149.549,109.364 150.065 C 109.760 150.292,110.392 150.551,110.769 150.640 M129.734 154.785 C 129.648 155.025,129.534 155.303,129.481 155.402 C 129.427 155.501,129.957 155.574,130.658 155.563 C 131.359 155.553,131.771 155.483,131.573 155.409 C 131.375 155.335,130.915 155.065,130.551 154.811 C 129.916 154.366,129.884 154.365,129.734 154.785 M323.109 162.926 C 322.660 163.375,322.948 165.091,323.649 166.146 C 324.044 166.741,324.368 167.349,324.369 167.498 C 324.369 167.647,324.540 167.909,324.747 168.082 C 324.955 168.254,325.338 168.781,325.597 169.252 C 325.857 169.723,326.328 170.464,326.644 170.900 C 326.960 171.335,327.261 171.820,327.314 171.977 C 327.387 172.198,327.554 172.197,328.042 171.975 L 328.676 171.686 327.954 170.297 C 327.557 169.533,326.916 168.421,326.529 167.827 C 326.143 167.233,325.592 166.315,325.305 165.786 C 325.019 165.258,324.556 164.543,324.277 164.198 C 323.998 163.852,323.661 163.384,323.529 163.158 C 323.396 162.932,323.207 162.827,323.109 162.926 M368.256 165.428 C 368.335 165.962,368.574 166.251,369.175 166.536 C 369.622 166.748,369.988 167.015,369.988 167.129 C 369.988 167.244,370.400 167.547,370.904 167.804 C 371.672 168.196,373.115 169.093,375.880 170.895 C 376.139 171.064,376.662 171.388,377.044 171.616 C 377.425 171.843,378.688 172.650,379.851 173.409 C 381.014 174.169,382.066 174.790,382.190 174.790 C 382.313 174.790,382.555 174.960,382.728 175.168 C 383.164 175.694,384.842 176.519,385.122 176.345 C 385.481 176.124,385.396 175.324,384.977 174.979 C 384.770 174.809,384.422 174.481,384.205 174.251 C 383.987 174.021,383.455 173.715,383.021 173.572 C 382.588 173.429,382.233 173.206,382.233 173.077 C 382.233 172.948,381.761 172.633,381.184 172.378 C 380.607 172.123,379.992 171.742,379.817 171.531 C 379.642 171.320,379.088 170.983,378.585 170.782 C 378.082 170.581,377.671 170.331,377.671 170.228 C 377.671 170.125,377.266 169.863,376.771 169.647 C 376.276 169.431,375.438 168.928,374.910 168.530 C 372.939 167.046,370.362 165.426,369.971 165.426 C 369.748 165.426,369.432 165.264,369.268 165.066 C 368.721 164.408,368.137 164.617,368.256 165.428 M245.690 168.478 C 244.766 168.804,246.503 170.546,249.700 172.501 C 250.426 172.946,251.471 173.591,252.021 173.935 C 252.713 174.368,253.409 174.578,254.276 174.616 C 255.882 174.685,256.069 174.254,254.696 173.646 C 254.127 173.394,253.513 173.008,253.332 172.788 C 253.151 172.569,252.868 172.389,252.704 172.389 C 252.540 172.389,252.117 172.162,251.763 171.884 C 251.410 171.606,250.706 171.146,250.198 170.863 C 249.691 170.580,248.755 169.986,248.119 169.544 C 246.817 168.638,246.113 168.329,245.690 168.478 M134.777 169.816 C 134.492 169.977,133.724 170.594,133.069 171.188 C 132.415 171.783,131.363 172.719,130.732 173.268 C 129.320 174.497,129.341 175.141,130.779 174.751 C 131.728 174.493,132.466 174.000,134.094 172.534 C 134.622 172.058,135.110 171.669,135.179 171.669 C 135.249 171.669,135.504 171.300,135.747 170.849 C 136.391 169.651,135.934 169.164,134.777 169.816 M105.590 174.610 C 105.726 174.775,105.892 175.558,105.959 176.351 C 106.026 177.143,106.207 178.980,106.361 180.432 C 106.719 183.818,106.600 193.542,106.195 194.030 C 106.037 194.221,105.832 195.380,105.739 196.606 C 105.557 199.020,105.033 200.192,104.411 199.580 C 104.243 199.415,103.967 199.280,103.798 199.280 C 103.344 199.280,100.048 197.011,98.736 195.796 C 97.096 194.277,96.041 193.181,96.040 192.996 C 96.039 192.907,95.778 192.524,95.460 192.146 C 93.423 189.725,93.914 185.333,96.557 182.326 C 101.369 176.855,104.933 173.810,105.590 174.610 M330.772 175.132 C 330.538 175.744,331.072 177.081,331.839 177.805 C 332.251 178.193,332.995 179.052,333.491 179.712 C 334.922 181.615,339.373 185.923,340.665 186.656 C 340.880 186.778,341.192 187.068,341.359 187.300 C 341.720 187.805,344.072 188.956,344.742 188.956 C 345.473 188.956,344.896 187.688,343.927 187.166 C 343.503 186.938,342.600 186.221,341.921 185.572 C 341.241 184.924,340.626 184.394,340.553 184.394 C 340.243 184.394,335.972 180.205,334.214 178.176 C 333.619 177.490,332.782 176.559,332.353 176.107 C 331.924 175.656,331.573 175.174,331.573 175.038 C 331.573 174.664,330.923 174.740,330.772 175.132 M126.651 177.433 C 125.838 177.608,125.006 178.019,124.412 178.540 C 123.332 179.488,121.900 180.552,121.706 180.552 C 121.586 180.552,121.489 180.706,121.489 180.895 C 121.489 181.083,121.210 181.457,120.869 181.725 C 120.409 182.087,120.291 182.344,120.410 182.720 C 120.558 183.186,120.606 183.197,120.989 182.851 C 121.219 182.643,121.524 182.473,121.669 182.473 C 121.912 182.473,125.111 180.151,126.976 178.620 C 127.962 177.812,127.791 177.188,126.651 177.433 M388.161 177.758 C 388.014 178.142,389.399 179.514,390.480 180.054 C 391.505 180.566,391.357 182.713,390.297 182.713 C 389.850 182.713,387.922 184.802,388.101 185.092 C 388.405 185.584,389.970 185.076,390.640 184.269 C 390.803 184.073,391.081 183.914,391.260 183.914 C 391.439 183.914,391.755 183.654,391.963 183.338 C 392.171 183.021,392.648 182.634,393.025 182.478 C 393.893 182.118,394.171 181.076,393.539 180.552 C 392.152 179.404,391.662 179.043,391.176 178.812 C 390.879 178.670,390.636 178.458,390.636 178.341 C 390.636 177.762,388.365 177.227,388.161 177.758 M111.257 184.875 C 112.248 185.972,112.319 186.361,111.651 187.029 C 110.180 188.500,107.615 187.091,108.534 185.316 C 109.399 183.646,110.051 183.540,111.257 184.875 M384.269 186.532 C 384.139 186.659,383.214 187.181,382.212 187.692 C 381.211 188.202,379.992 189.020,379.503 189.508 L 378.615 190.396 379.562 190.396 C 381.362 190.396,385.699 187.840,385.377 186.969 C 385.160 186.380,384.634 186.173,384.269 186.532 M347.024 189.860 C 345.832 190.624,349.494 192.448,355.942 194.301 C 357.252 194.678,368.093 194.675,369.388 194.298 C 369.916 194.144,371.267 193.794,372.389 193.520 C 378.405 192.051,373.789 191.551,366.937 192.929 C 364.997 193.319,359.150 193.405,358.491 193.052 C 358.260 192.928,357.082 192.656,355.874 192.446 C 354.665 192.236,353.160 191.811,352.529 191.501 C 351.897 191.192,351.009 190.869,350.556 190.784 C 350.102 190.700,349.562 190.483,349.355 190.304 C 348.895 189.903,347.400 189.619,347.024 189.860 M375.270 191.574 C 375.270 191.769,377.169 191.654,377.411 191.444 C 377.466 191.396,377.007 191.357,376.391 191.357 C 375.774 191.357,375.270 191.454,375.270 191.574 M108.480 203.262 C 108.778 203.471,110.007 203.801,111.210 203.994 C 113.937 204.433,115.848 205.463,115.370 206.236 C 115.317 206.322,115.159 207.717,115.018 209.337 C 114.821 211.605,114.625 212.573,114.164 213.547 C 113.835 214.243,113.565 214.952,113.565 215.122 C 113.565 215.292,113.120 216.308,112.576 217.380 C 110.993 220.495,110.572 221.237,110.073 221.796 C 109.815 222.086,109.334 222.656,109.004 223.063 C 107.225 225.255,103.294 228.331,102.270 228.331 C 102.051 228.331,101.384 228.591,100.787 228.908 C 100.190 229.226,98.919 229.607,97.962 229.755 C 97.006 229.904,95.992 230.157,95.710 230.319 C 94.625 230.941,81.817 230.640,73.589 229.799 C 71.739 229.610,71.571 229.014,72.824 227.082 C 74.909 223.868,76.844 222.870,81.621 222.548 C 83.542 222.418,85.816 222.160,86.675 221.974 C 87.533 221.788,88.667 221.572,89.196 221.494 C 90.885 221.245,92.546 220.808,92.917 220.514 C 93.115 220.357,93.709 220.090,94.238 219.920 C 94.766 219.751,95.468 219.429,95.798 219.206 C 96.128 218.982,96.993 218.404,97.719 217.922 C 99.619 216.659,101.467 214.735,102.689 212.745 C 103.573 211.306,105.189 207.848,105.334 207.083 C 105.410 206.687,105.672 205.962,105.917 205.472 C 106.162 204.982,106.363 204.439,106.363 204.265 C 106.363 203.149,107.529 202.596,108.480 203.262 " stroke="none" fill="#fff" stroke-width="5" fill-rule="evenodd"></path></g>
</svg>