<?xml version="1.0" encoding="UTF-8"?>
<svg width="2500px" height="2502px" viewBox="0 0 2500 2502" version="1.1" xmlns="http://www.w3.org/2000/svg" xmlns:xlink="http://www.w3.org/1999/xlink">
    <!-- Generator: Sketch 51 (57462) - http://www.bohemiancoding.com/sketch -->
    <title>git-icon</title>
    <desc>Created with Sketch.</desc>
    <defs></defs>
    <g id="Page-1" stroke="none" stroke-width="1" fill="none" fill-rule="evenodd">
        <g id="git-icon" fill="#181818" fill-rule="nonzero">
            <path d="M2452.9,1139.6 L1361.3,48.1 C1298.5,-14.8 1196.5,-14.8 1133.6,48.1 L907,274.8 L1194.5,562.3 C1261.3,539.7 1337.9,554.9 1391.2,608.1 C1444.7,661.7 1459.8,739 1436.6,806 L1713.7,1083.1 C1780.7,1060 1858.1,1074.9 1911.6,1128.6 C1986.4,1203.4 1986.4,1324.6 1911.6,1399.5 C1836.7,1474.4 1715.5,1474.4 1640.6,1399.5 C1584.3,1343.2 1570.4,1260.5 1598.9,1191.1 L1340.5,932.7 L1340.5,1612.7 C1359.2,1622 1376.3,1634.2 1391.2,1648.9 C1466,1723.7 1466,1845 1391.2,1919.9 C1316.3,1994.7 1195,1994.7 1120.3,1919.9 C1045.5,1845 1045.5,1723.7 1120.3,1648.9 C1138.2,1631 1159.5,1616.7 1183,1607.1 L1183,920.9 C1159.5,911.3 1138.2,897.1 1120.3,879.1 C1063.6,822.5 1050,739.3 1079,669.7 L795.6,386.2 L47.2,1134.6 C-15.7,1197.5 -15.7,1299.5 47.2,1362.4 L1138.7,2453.9 C1201.5,2516.8 1303.5,2516.8 1366.4,2453.9 L2452.8,1367.5 C2515.7,1304.5 2515.7,1202.5 2452.9,1139.6" id="Shape"></path>
        </g>
    </g>
</svg>