<?xml version="1.0" encoding="UTF-8"?>
<svg width="2501px" height="2500px" viewBox="0 0 2501 2500" version="1.1" xmlns="http://www.w3.org/2000/svg" xmlns:xlink="http://www.w3.org/1999/xlink">
    <!-- Generator: Sketch 51 (57462) - http://www.bohemiancoding.com/sketch -->
    <title>laravel-icon</title>
    <desc>Created with Sketch.</desc>
    <defs></defs>
    <g id="Page-1" stroke="none" stroke-width="1" fill="none" fill-rule="evenodd">
        <g id="laravel-icon" fill="#181818" fill-rule="nonzero">
            <path d="M1566.8,2031.2 C1586.3,2059.4 1598.3,2057.2 1613.5,2050.7 C1628.7,2044.2 2409.9,1780.5 2433.8,1771.8 C2457.7,1763.1 2450.1,1755.5 2442.5,1743.6 C2434.9,1731.7 2174.5,1377.9 2161.5,1357.3 C2148.5,1336.7 2142,1341 2121.4,1347.5 L1293.2,1563 C1293.1,1563.2 1547.3,2003 1566.8,2031.2 Z M2500,1671 L2500,1257 C2406.8,1281.8 2289,1313.2 2242.5,1325.6 C2312.6,1419.5 2422.4,1566.5 2500,1671 Z M2241.7,815.6 C2228.9,818.5 1946.3,869.6 1928.9,871.9 C1911.5,874.2 1917.3,884.1 1924.3,894 L2173,1235.2 C2173,1235.2 2477.1,1159.8 2495.7,1155.7 C2497.2,1155.4 2498.7,1155 2500.1,1154.7 L2500.1,1109.5 C2444.8,1039.4 2294.2,848.6 2281.2,830.8 C2265.5,809.3 2254.4,812.7 2241.7,815.6 Z" id="Shape"></path>
            <path d="M463.4,279.6 C524.6,276.8 530.2,290.7 557.1,330.6 L1232.6,1460 L2082,1256.5 C2034.9,1189.8 1821.3,886.9 1800.7,858 C1777.5,825.5 1801.3,810.4 1839,804 C1876.7,797.6 2201.7,743.1 2229.5,739 C2257.4,734.9 2279.4,725.1 2324.7,779.6 C2347.9,807.5 2426.4,905.3 2500.1,996.9 L2500.1,468.7 C2500.1,339.6 2454.3,229.2 2362.6,137.5 C2270.8,45.8 2160.4,0 2031.2,0 L468.8,0 C339.6,0 229.2,45.8 137.5,137.5 C84.9,190.1 47.5,248.9 25.1,313.8 C178.2,301.2 420.6,281.6 463.4,279.6 Z" id="Shape"></path>
            <path d="M1643.4,2183.2 C1571.8,2204.9 1539.7,2215.7 1493,2150.6 C1458.1,2101.8 1269.1,1761.5 1176.5,1593.7 C1001.2,1639.6 680.3,1723.4 587.7,1745.6 C497.4,1767.3 458.8,1713.1 444,1679.8 C433.6,1656.4 168.8,1085.5 0,719.2 L0,2031.2 C0,2160.3 45.8,2270.7 137.5,2362.4 C229.2,2454.1 339.6,2499.9 468.7,2499.9 L2031.2,2499.9 C2160.3,2499.9 2270.7,2454.1 2362.4,2362.4 C2454.1,2270.7 2499.9,2160.3 2499.9,2031.2 L2499.9,1877.1 C2308.2,1947.3 1691.7,2168.6 1643.4,2183.2 Z" id="Shape"></path>
            <path d="M590,1614.1 C615.4,1608.3 1091.1,1494.4 1101.3,1492.3 C1111.5,1490.2 1118,1484.3 1107.1,1465.5 C1096.2,1446.7 472.9,370.8 472.9,370.8 C467.1,360.9 468.8,357.6 453.2,358.5 C439.3,359.2 86.6,390.7 5,397.5 C2.6,414.8 1.1,432.1 0.5,449.6 C83.3,619.3 559,1600.3 561.7,1608.3 C564.6,1617 564.6,1619.9 590,1614.1 Z" id="Shape"></path>
        </g>
    </g>
</svg>