<?xml version="1.0" encoding="UTF-8"?>
<svg width="47px" height="17px" viewBox="0 0 47 17" version="1.1" xmlns="http://www.w3.org/2000/svg" xmlns:xlink="http://www.w3.org/1999/xlink">
    <!-- Generator: Sketch 51 (57462) - http://www.bohemiancoding.com/sketch -->
    <title>php7-icon</title>
    <desc>Created with Sketch.</desc>
    <defs></defs>
    <g id="Page-1" stroke="none" stroke-width="1" fill="none" fill-rule="evenodd">
        <g id="php7-icon" fill="#181818" fill-rule="nonzero">
            <path d="M4.99444128,6.12806355 L3.9626547,11.3743514 C4.05246825,11.3860181 4.40049575,11.3918514 4.49298231,11.3918514 C5.75518341,11.4035181 6.84577648,11.4008666 7.6423371,11.0508666 C8.50358486,10.6727605 9.04781219,9.970109 9.29479944,8.51283627 C9.49581071,7.28889688 9.22690468,6.62919991 8.52550365,6.35927567 C8.21329465,6.23942718 7.89039356,6.17897264 7.49639009,6.13495748 C7.02112674,6.08192718 6.42183515,6.12169991 5.84446235,6.12753324 C5.69637692,6.13973021 4.99444128,6.12806355 4.99444128,6.12806355 Z M7.93530034,4.12351809 C9.48725704,4.12351809 10.6243607,4.53715445 11.3471459,5.31829082 C12.0693965,6.09942718 12.3302835,7.16904839 12.1303414,8.52132112 C12.0485469,9.13965445 11.8630392,9.74685142 11.5748874,10.3413211 C11.2867356,10.9357908 10.8782978,11.4729878 10.349574,11.9507908 C9.70323724,12.5569272 9.00878606,12.9424575 8.26515128,13.1052605 C7.5215165,13.2685938 6.74794386,13.3502605 5.94496799,13.3502605 L3.57399727,13.3502605 L2.92071064,16.6911696 L0.173913,16.6911696 L2.64004331,4.12298779 L7.93530034,4.12298779 L7.93530034,4.12351809 Z" id="Fill-1"></path>
            <path d="M17.372138,0.782609 L16.7151091,4.12351809 L19.1652013,4.12351809 C20.5043855,4.17654839 21.513184,4.39715445 22.1921317,4.86329082 C22.8710793,5.32995748 23.0886633,6.21874536 22.8448837,7.52435142 L21.6992264,13.3507908 L18.933183,13.3507908 L20.0269837,7.78950294 C20.141389,7.20669991 20.0911362,6.79253324 19.8762252,6.54753324 C19.6607796,6.30253324 19.2111773,6.15616961 18.5129839,6.15616961 L16.3243133,6.12541203 L14.9022655,13.3507908 L12.1757828,13.3507908 L14.6456553,0.782609 L17.372138,0.782609 Z" id="Fill-3"></path>
            <path d="M27.0736049,6.12806355 L26.0418183,11.3743514 C26.1316318,11.3860181 26.4796593,11.3918514 26.5721459,11.3918514 C27.834347,11.4035181 28.9249401,11.4008666 29.7215007,11.0508666 C30.5827485,10.6727605 31.1269758,9.970109 31.373963,8.51283627 C31.5749743,7.28889688 31.3060683,6.62919991 30.6046672,6.35927567 C30.2924582,6.23942718 29.9695572,6.17897264 29.5755537,6.13495748 C29.1002903,6.08192718 28.5009987,6.12169991 27.9236259,6.12753324 C27.7755405,6.13973021 27.0736049,6.12806355 27.0736049,6.12806355 Z M30.0144639,4.12351809 C31.5664206,4.12351809 32.7035243,4.53715445 33.4263095,5.31829082 C34.1485601,6.09942718 34.4094471,7.16904839 34.209505,8.52132112 C34.1277105,9.13965445 33.9422028,9.74685142 33.654051,10.3413211 C33.3658992,10.9357908 32.9574614,11.4729878 32.4287376,11.9507908 C31.7824008,12.5569272 31.0879497,12.9424575 30.3443149,13.1052605 C29.6006801,13.2685938 28.8271075,13.3502605 28.023597,13.3502605 L25.6526263,13.3502605 L24.9993396,16.6911696 L22.2530766,16.6911696 L24.7192069,4.12298779 L30.0144639,4.12298779 L30.0144639,4.12351809 Z" id="Fill-5"></path>
            <polygon id="Fill-7" points="34.9611589 2.95685142 34.9632973 0.782609 46.276062 0.782609 46.276062 2.95844233 38.6387028 13.3507908 35.2172344 13.3507908 43.1368646 2.95685142"></polygon>
        </g>
    </g>
</svg>