<?xml version="1.0" encoding="UTF-8"?>
<svg width="2500px" height="2135px" viewBox="0 0 2500 2135" version="1.1" xmlns="http://www.w3.org/2000/svg" xmlns:xlink="http://www.w3.org/1999/xlink">
    <!-- Generator: Sketch 51 (57462) - http://www.bohemiancoding.com/sketch -->
    <title>redis-icon</title>
    <desc>Created with Sketch.</desc>
    <defs></defs>
    <g id="Page-1" stroke="none" stroke-width="1" fill="none" fill-rule="evenodd">
        <g id="redis-icon" transform="translate(-1.000000, 0.000000)" fill="#181818" fill-rule="nonzero">
            <path d="M2500.50093,1307.7 C2500.7,1332 2468.6,1359 2402.5,1393.4 C2269.1,1462.9 1578.1,1747 1431,1823.7 C1283.9,1900.4 1202.2,1899.7 1086,1844.1 C969.8,1788.6 234.5,1491.5 102,1428.2 C34.4,1395.9 0.6,1368.7 1,1343.1 C1,1343.1 1,1343.1 1,1343.1 L1,1595.7 C1,1620.9 35.8,1647.6 102,1679.3 C234.5,1742.6 969.8,2039.6 1086,2095.2 C1202.2,2150.8 1283.9,2151.5 1431,2074.8 C1578.1,1998.1 2269.1,1714 2402.5,1644.5 C2470.4,1609.1 2500.4,1581.7 2500.4,1556.7 L2500.50093,1307.7 C2500.50093,1307.7 2500.50093,1307.7 2500.50093,1307.7 Z" id="Shape"></path>
            <path d="M2500.50093,898.9 C2500.7,923.2 2468.6,950.2 2402.5,984.6 C2269.1,1054.1 1578.1,1338.2 1431,1414.9 C1283.9,1491.6 1202.2,1490.8 1086,1435.3 C969.8,1379.8 234.5,1082.7 102,1019.4 C34.5,987.1 0.7,959.9 1,934.3 C1,934.3 1,934.3 1,934.3 L1,1187 C1,1212.2 35.8,1238.9 102,1270.5 C234.5,1333.8 969.8,1630.9 1086,1686.4 C1202.2,1742 1283.9,1742.7 1431,1666 C1578.1,1589.3 2269.1,1305.2 2402.5,1235.6 C2470.4,1200.2 2500.4,1172.8 2500.4,1147.9 L2500.50093,898.9 C2500.50093,898.9 2500.50093,898.9 2500.50093,898.9 Z" id="Shape"></path>
            <path d="M2402.6,811.8 C2269.2,881.3 1578.2,1165.4 1431.1,1242.2 C1284,1318.9 1202.3,1318.1 1086.1,1262.6 C969.8,1207 234.5,909.9 102,846.6 C35.8,815 1,788.3 1,763.1 L1,510.4 C1,510.4 569.8,748.7 724.3,693.3 C1031.5,898.9 1323,981.3 1595,749.2 C1726.5,797.4 2370.5,427.4 2500.5,475 L2500.4,724.1 C2500.5,749 2470.5,776.4 2402.6,811.8" id="Shape"></path>
            <path d="M2400.9,404.2 C2270.9,356.6 1584.1,83.2 1452.6,35 C1321,-13.1 1267.4,-11.1 1112.9,44.3 C958.3,99.8 227,386.6 96.9,437.6 C-33.2,488.6 -30.4,532.2 102,595.4 C234.4,658.7 969.8,955.7 1086,1011.3 C1202.2,1066.8 1283.9,1067.6 1431,990.9 C1578.1,914.2 2269.1,630.1 2402.5,560.6 C2535.9,491.1 2530.9,451.8 2400.9,404.2 Z M1096.9,132.1 L1270.3,199.9 L1433.7,146.4 L1389.5,252.4 L1556.1,314.8 L1341.2,337.1 L1293.1,452.9 L1215.4,323.7 L967.3,301.4 L1152.5,234.6 L1096.9,132.1 Z M417.1,498.2 C417.1,432.5 554.6,379.1 724.3,379.1 C894,379.1 1031.5,432.4 1031.5,498.2 C1031.5,564 894,617.3 724.3,617.3 C554.6,617.3 417.1,564 417.1,498.2 Z M1280.3,876.4 L879.3,710.1 L1454,621.9 L1280.3,876.4 Z M1810.4,615.2 L1773.5,629.6 L1433.8,495.3 L1810.1,346.5 L2150.2,480.9 L1810.4,615.2 Z" id="Shape"></path>
        </g>
    </g>
</svg>